<svg class="svg-icon" style="width: 1em; height: 1em;vertical-align: middle;fill: currentColor;overflow: hidden;" viewBox="0 0 1024 1024" version="1.1" xmlns="http://www.w3.org/2000/svg"><path d="M298.666667 298.666667V128a42.666667 42.666667 0 0 1 42.666666-42.666667h554.666667a42.666667 42.666667 0 0 1 42.666667 42.666667v554.666667a42.666667 42.666667 0 0 1-42.666667 42.666666h-170.666667v170.368c0 23.722667-19.157333 42.965333-42.965333 42.965334H128.298667A42.922667 42.922667 0 0 1 85.333333 895.701333l0.128-554.069333C85.461333 317.909333 104.618667 298.666667 128.426667 298.666667H298.666667z m85.333333 0h298.368C706.090667 298.666667 725.333333 317.824 725.333333 341.632V640h128V170.666667H384v128z"  /></svg>