<svg class="svg-icon" style="width: 1em; height: 1em;vertical-align: middle;fill: currentColor;overflow: hidden;" viewBox="0 0 1024 1024" version="1.1" xmlns="http://www.w3.org/2000/svg"><path d="M85.333333 128m85.333334 0l682.666666 0q85.333333 0 85.333334 85.333333l0 597.333334q0 85.333333-85.333334 85.333333l-682.666666 0q-85.333333 0-85.333334-85.333333l0-597.333334q0-85.333333 85.333334-85.333333Z" fill="#000000" opacity=".3" /><path d="M424.490667 568.149333A42.666667 42.666667 0 0 1 384 597.333333H213.333333a42.666667 42.666667 0 0 1 0-85.333333h139.946667l75.562667-226.816c13.525333-40.533333 71.509333-38.272 81.92 3.114667l78.677333 314.794666 33.706667-67.498666A42.666667 42.666667 0 0 1 661.333333 512H810.666667a42.666667 42.666667 0 0 1 0 85.333333h-122.965334l-73.557333 147.072c-17.706667 35.413333-69.930667 29.696-79.530667-8.704l-71.125333-284.544-38.997333 116.992z" fill="#000000" /><path d="M810.666667 256m-42.666667 0a42.666667 42.666667 0 1 0 85.333333 0 42.666667 42.666667 0 1 0-85.333333 0Z" fill="#000000" opacity=".3" /></svg>