<svg class="svg-icon" style="width: 1em; height: 1em;vertical-align: middle;fill: currentColor;overflow: hidden;" viewBox="0 0 1024 1024" version="1.1" xmlns="http://www.w3.org/2000/svg"><path d="M511.973761 1024a21.33224 21.33224 0 0 1 0-42.66448 469.309281 469.309281 0 1 0-331.844326-137.464955l-30.18512 30.18512A511.973761 511.973761 0 1 1 511.973761 1024z m-155.32004-676.829312l156.088001 156.599974 241.928934-241.950267a20.28696 20.28696 0 0 1 28.713196 28.691863l-253.853657 253.853657a18.388391 18.388391 0 0 1-18.28173 10.218143 20.137635 20.137635 0 0 1-14.783242-5.845034 13.268653 13.268653 0 0 1-0.746629-1.151941L326.297944 377.633126a21.52423 21.52423 0 1 1 30.355777-30.462438z m-200.864372 490.641521l84.859651-85.32896a21.545562 21.545562 0 1 1 30.398442 30.505103l-84.838319 85.32896A21.545562 21.545562 0 0 1 155.725352 837.897538z"  /></svg>