<?xml version="1.0" standalone="no"?>
<!DOCTYPE svg PUBLIC "-//W3C//DTD SVG 20010904//EN"
 "http://www.w3.org/TR/2001/REC-SVG-20010904/DTD/svg10.dtd">
<svg version="1.0" xmlns="http://www.w3.org/2000/svg"
 width="194.000000pt" height="259.000000pt" viewBox="0 0 194.000000 259.000000"
 preserveAspectRatio="xMidYMid meet">

<g transform="translate(0.000000,259.000000) scale(0.100000,-0.100000)"
fill="#000000" stroke="none">
<path d="M1665 2170 c-50 -50 -98 -93 -107 -96 -10 -3 -30 3 -46 14 -54 38
-193 102 -279 129 -81 24 -102 27 -263 27 -207 0 -274 -15 -435 -94 -238 -117
-410 -317 -489 -567 -25 -81 -46 -211 -46 -288 l0 -41 118 -23 c64 -12 127
-25 139 -28 23 -5 23 -4 23 93 0 119 19 205 65 299 85 171 228 292 421 357 59
19 89 23 204 23 142 0 210 -15 314 -67 75 -37 75 -33 -24 -133 l-91 -92 341
-47 c188 -26 343 -46 345 -44 4 4 -90 657 -96 663 -3 2 -45 -36 -94 -85z"/>
<path d="M1660 1294 c0 -119 -19 -205 -65 -299 -85 -171 -228 -292 -421 -357
-59 -19 -89 -23 -204 -23 -142 0 -210 15 -314 67 -75 37 -75 33 24 133 l91 92
-341 47 c-188 27 -343 46 -344 44 -3 -2 73 -542 93 -667 1 -3 45 39 100 92 54
53 104 97 111 97 6 0 24 -8 38 -19 54 -37 193 -102 279 -128 81 -24 102 -27
263 -27 149 0 187 3 253 22 405 112 684 453 713 869 l7 98 -119 23 c-66 13
-129 26 -141 29 -23 5 -23 4 -23 -93z"/>
</g>
</svg>
