<?xml version="1.0" standalone="no"?>
<!DOCTYPE svg PUBLIC "-//W3C//DTD SVG 20010904//EN"
 "http://www.w3.org/TR/2001/REC-SVG-20010904/DTD/svg10.dtd">
<svg version="1.0" xmlns="http://www.w3.org/2000/svg"
 width="300.000000pt" height="200.000000pt" viewBox="0 0 300.000000 200.000000"
 preserveAspectRatio="xMidYMid meet">

<g transform="translate(0.000000,200.000000) scale(0.100000,-0.100000)"
fill="#000000" stroke="none">
<path d="M1464 1619 c-11 -6 -28 -23 -37 -39 -15 -25 -17 -82 -17 -580 l0
-552 34 -34 34 -34 546 0 c593 0 589 0 614 55 9 19 12 170 12 571 0 591 0 587
-55 612 -34 15 -1099 16 -1131 1z m1116 -59 c19 -19 20 -33 20 -286 0 -250 -1
-266 -17 -259 -51 21 -95 27 -165 23 -133 -8 -162 -47 -156 -209 4 -119 18
-144 99 -174 l54 -20 -79 -3 -78 -3 4 -82 c3 -45 8 -90 12 -100 7 -14 3 -17
-29 -17 -31 0 -36 3 -30 17 20 49 25 108 25 336 l0 247 -95 0 -95 0 0 -245 c0
-157 -4 -245 -10 -245 -6 0 -10 88 -10 245 l0 245 -95 0 -95 0 0 -247 c0 -228
5 -287 25 -335 6 -15 1 -18 -32 -18 l-40 0 14 52 c18 68 12 167 -14 211 -18
29 -18 35 -5 55 19 29 27 137 13 188 -6 22 -22 51 -37 65 -24 22 -35 24 -162
29 l-137 5 -3 252 c-2 242 -1 254 18 273 20 20 32 20 550 20 517 0 531 -1 550
-20z m-22 -596 c18 -12 22 -24 22 -64 0 -48 -1 -50 -28 -50 -25 0 -30 5 -38
37 -11 48 -51 65 -92 42 -24 -13 -27 -21 -30 -76 -4 -75 5 -85 97 -113 96 -28
103 -39 109 -164 4 -96 3 -105 -17 -125 -18 -18 -32 -21 -117 -21 -52 0 -104
4 -114 10 -22 12 -40 60 -40 106 0 32 2 34 34 34 31 0 34 -3 40 -40 7 -42 27
-60 68 -60 48 0 63 22 63 93 0 82 -14 98 -100 122 -94 25 -108 46 -103 156 3
98 18 125 72 132 51 8 149 -3 174 -19z m-844 6 c30 -11 41 -43 41 -122 -1 -64
-22 -98 -62 -98 -21 0 -24 -4 -21 -27 2 -22 9 -29 29 -31 49 -6 64 -35 63
-124 -1 -63 -6 -86 -21 -106 -19 -26 -24 -27 -131 -30 -162 -4 -152 -24 -152
293 l0 255 114 0 c63 0 126 -4 140 -10z m266 -219 c0 -252 2 -261 60 -261 58
0 60 9 60 261 l0 229 40 0 41 0 -3 -256 c-4 -309 3 -294 -138 -294 -141 0
-134 -15 -138 294 l-3 256 41 0 40 0 0 -229z m480 94 c0 -19 -4 -35 -10 -35
-5 0 -10 16 -10 35 0 19 5 35 10 35 6 0 10 -16 10 -35z m140 -65 c0 -24 5 -24
-55 0 l-50 19 53 1 c45 0 52 -2 52 -20z m-140 -194 c0 -25 -4 -48 -10 -51 -6
-4 -10 13 -10 44 0 28 5 51 10 51 6 0 10 -20 10 -44z"/>
<path d="M1550 835 l0 -95 44 0 c62 0 76 17 76 95 0 78 -14 95 -76 95 l-44 0
0 -95z m70 0 c0 -25 -4 -45 -10 -45 -5 0 -10 20 -10 45 0 25 5 45 10 45 6 0
10 -20 10 -45z"/>
<path d="M1550 590 l0 -100 49 0 c64 0 81 22 81 100 0 78 -17 100 -81 100
l-49 0 0 -100z m75 0 c0 -26 -5 -45 -12 -47 -9 -3 -13 10 -13 47 0 37 4 50 13
48 7 -3 12 -22 12 -48z"/>
<path d="M655 1026 c-46 -18 -61 -35 -76 -91 -14 -52 -7 -193 12 -224 8 -13
41 -36 74 -52 l60 -28 -77 -1 -78 0 0 -67 c0 -77 19 -125 63 -157 24 -18 43
-21 132 -21 89 0 108 3 132 21 52 38 64 77 61 191 -4 122 -17 147 -99 180
l-54 22 73 1 72 0 0 65 c0 129 -38 166 -175 172 -54 2 -93 -2 -120 -11z m206
-57 c23 -12 39 -48 39 -90 0 -27 -3 -29 -35 -29 -31 0 -35 3 -35 25 0 14 -9
34 -20 45 -11 11 -31 20 -45 20 -41 0 -65 -33 -65 -90 0 -41 5 -56 25 -75 13
-14 31 -25 39 -25 8 0 40 -9 70 -20 64 -24 76 -47 76 -147 0 -72 -19 -129 -47
-136 -80 -23 -178 -18 -212 11 -13 11 -23 35 -27 70 l-7 52 42 0 c39 0 41 -1
41 -32 0 -40 25 -68 62 -68 46 0 68 31 68 96 0 79 -9 90 -93 114 -105 31 -112
41 -112 154 0 106 12 131 69 139 46 7 144 -1 167 -14z m-81 -124 c0 -24 -5
-35 -15 -35 -10 0 -15 11 -15 35 0 24 5 35 15 35 10 0 15 -11 15 -35z m-5
-263 c0 -59 -19 -57 -23 2 -2 36 0 47 10 44 8 -3 13 -21 13 -46z"/>
<path d="M1077 1026 c-91 -33 -97 -53 -97 -324 0 -212 1 -220 23 -253 28 -42
62 -59 131 -66 95 -10 163 4 205 42 l36 33 0 251 0 250 -28 29 c-47 49 -184
68 -270 38z m164 -46 c89 -17 89 -17 89 -272 0 -215 0 -219 -23 -242 -42 -41
-201 -45 -250 -6 -21 18 -22 26 -25 231 -2 143 1 221 8 240 12 27 41 44 90 52
45 7 56 7 111 -3z"/>
<path d="M1143 925 c-23 -16 -23 -20 -23 -214 0 -179 2 -199 18 -214 23 -21
66 -22 86 -1 14 13 16 47 16 212 0 108 -4 203 -8 209 -13 21 -65 26 -89 8z
m47 -215 c0 -107 -4 -170 -10 -170 -6 0 -10 63 -10 170 0 107 4 170 10 170 6
0 10 -63 10 -170z"/>
<path d="M350 710 l0 -320 95 0 95 0 0 320 0 320 -95 0 -95 0 0 -320z m130 0
l0 -270 -40 0 -40 0 0 270 0 270 40 0 40 0 0 -270z"/>
</g>
</svg>
