<?xml version="1.0" standalone="no"?>
<!DOCTYPE svg PUBLIC "-//W3C//DTD SVG 20010904//EN"
 "http://www.w3.org/TR/2001/REC-SVG-20010904/DTD/svg10.dtd">
<svg version="1.0" xmlns="http://www.w3.org/2000/svg"
 width="512.000000pt" height="512.000000pt" viewBox="0 0 512.000000 512.000000"
 preserveAspectRatio="xMidYMid meet">

<g transform="translate(0.000000,512.000000) scale(0.100000,-0.100000)"
fill="#000000" stroke="none">
<path d="M2661 5099 c-129 -79 -137 -260 -14 -342 38 -25 56 -29 165 -37 218
-17 351 -45 521 -110 371 -143 689 -445 850 -807 92 -205 114 -299 146 -626 7
-70 16 -107 32 -133 48 -78 149 -112 236 -79 62 23 91 49 115 105 18 40 20 59
14 173 -32 671 -383 1259 -956 1604 -281 169 -643 273 -955 273 -104 0 -125
-3 -154 -21z"/>
<path d="M2720 4331 c-57 -12 -98 -39 -128 -83 -23 -36 -27 -52 -27 -113 0
-63 4 -77 29 -114 47 -67 87 -82 246 -92 184 -11 277 -31 385 -84 133 -64 209
-153 260 -303 29 -88 43 -168 54 -327 10 -142 24 -181 78 -221 108 -79 245
-47 305 71 19 36 20 52 15 190 -6 159 -22 268 -57 387 -112 378 -391 607 -820
672 -118 18 -294 27 -340 17z"/>
<path d="M1195 4109 c-162 -24 -264 -82 -379 -219 -155 -184 -291 -451 -351
-690 -72 -283 -71 -591 0 -860 144 -536 618 -1091 1141 -1336 540 -253 1203
-218 1739 91 205 118 324 256 366 425 20 80 18 304 -4 410 -47 225 -181 532
-337 769 l-81 124 -29 -28 c-34 -33 -85 -126 -105 -192 -29 -95 -22 -135 50
-274 354 -688 58 -1013 -620 -683 -254 124 -490 299 -751 559 -297 295 -496
571 -618 857 -62 147 -88 266 -83 383 2 70 9 110 22 135 68 133 178 180 365
158 111 -13 216 -47 371 -119 91 -43 137 -59 167 -59 81 0 238 67 292 125 l25
27 -25 20 c-14 11 -73 49 -132 84 -388 230 -747 333 -1023 293z"/>
<path d="M2670 3540 c-107 -23 -228 -119 -271 -215 -23 -52 4 -45 -314 -80
-126 -14 -246 -30 -266 -35 -40 -11 -96 -66 -103 -103 -14 -69 -13 -84 7 -126
48 -98 91 -105 438 -66 l244 27 72 -70 72 -71 -30 -263 c-16 -145 -27 -280
-23 -300 13 -81 81 -138 164 -138 77 1 135 46 158 120 6 19 23 151 38 292 l27
257 52 26 c131 63 217 204 217 354 0 168 -98 314 -249 371 -63 24 -170 33
-233 20z"/>
<path d="M1325 747 c-199 -105 -359 -273 -437 -458 -33 -79 -58 -183 -58 -246
l0 -43 1155 0 1156 0 -6 37 c-15 94 -29 143 -60 208 -54 114 -149 225 -247
289 -24 16 -33 16 -140 1 -114 -16 -395 -22 -485 -10 -280 36 -484 95 -709
206 -55 27 -103 49 -105 49 -2 -1 -31 -15 -64 -33z"/>
</g>
</svg>
