<svg id="Livello_1" data-name="Livello 1" xmlns="http://www.w3.org/2000/svg" viewBox="0 0 48.0005 47.9991"><defs><style>.cls-1{fill:#fff;}</style></defs><path class="cls-1" d="M11.3821,40.6748c3.0673,2.9328,6.2634,2.3759,8.6139-.0149a5.6758,5.6758,0,0,0,4.2771,1.9967,5.94,5.94,0,0,0,4.2777-2.0274,5.5106,5.5106,0,0,0,4.2356,2.0259,5.7629,5.7629,0,0,0,4.2509-1.99c2.3185,2.1608,4.7814,2.6281,6.53,1.3115-.3477-1.0863-.8153-1.724-2.2121-1.3917-1.2833.3053-2.61-.7638-3.1148-2.1132-.22-.5872-.3506-1.208-.5248-1.8238H36.312c-.3365,2.0241-1.0308,3.8782-3.4,3.9546-2.5717.0829-3.3148-1.8746-3.6629-3.955H27.7627c-.3182,2.0342-1.0252,3.8712-3.3864,3.955-2.5734.0914-3.3142-1.8734-3.6832-3.9176H19.2048c-.5227,2.6688-1.5462,3.8505-3.3714,3.9541-1.8.1021-2.7486-.9045-3.7258-3.98H10.7465C9.5472,40.4548,8.8384,40.9358,5.36,40.3091l-.9272,1.665C7.1916,43.1965,9.454,42.7346,11.3821,40.6748ZM23.97,5.2893a8.4853,8.4853,0,0,0-3.1748,5.4751,3.5309,3.5309,0,0,0,2.0165,3.9437,3.59,3.59,0,0,0,4.0185-.9238,3.4608,3.4608,0,0,0-.0438-4.41C25.8507,8.07,24.9621,6.732,23.97,5.2893Zm-5.1843,7.5378a8.274,8.274,0,0,0-3.2212,6.035,3.2407,3.2407,0,0,0,2.9132,3.601,3.2534,3.2534,0,0,0,3.8777-2.8162,3.6986,3.6986,0,0,0-1.0208-3.05C20.4776,15.4356,19.7117,14.2065,18.7859,12.8271ZM31.533,28.46,12.0088,24.9477v1.8537L31.4393,30.244c.0441-.3392.0832-.53.0905-.7211C31.5418,29.209,31.533,28.8944,31.533,28.46Zm6.5025-8.5707c3.1629,3.2644,3.15,4.8228-.0661,7.8568l.9462,1.8571a6.064,6.064,0,0,0,3.6466-5.7241A6.3381,6.3381,0,0,0,38.93,18.0545Zm-6.602,3.0221a4.6268,4.6268,0,0,0,4.96-1.8215A4.8162,4.8162,0,0,0,36.1889,15.5a4.3053,4.3053,0,0,0-4.8284-1.432l.4633,1.6574c.3538,0,.5924-.021.8264.0035a2.8107,2.8107,0,0,1,2.6182,2.4879,2.6021,2.6021,0,0,1-2.3128,2.8615C31.7163,21.1951,31.499,21.8557,31.4335,22.911ZM31.3011,24.66l.5309,1.7449c2.2211.1844,3.4646,1.112,3.4206,2.5918-.0611,2.05-1,2.6975-3.4536,2.9991L31.34,33.6985c2.1979.2763,3.9675-.1869,5.1259-2.0189a4.5333,4.5333,0,0,0-.179-5.2814C35.1143,24.66,33.3859,24.3486,31.3011,24.66ZM23.733,20.5861c2.2156-.4,4.3862-.7832,6.5529-1.187,1.5235-.284,1.5726-.3822,1.1325-1.9866-2.1254.3811-4.2469.8642-6.3953,1.1086C23.7077,18.6708,23.4348,19.2578,23.733,20.5861Zm-11.6879.2763V22.67c.5715-.0936,1.0406-.16,1.5052-.25.4552-.0879.9057-.2,1.3623-.3019C14.3666,20.3862,14.3666,20.3862,12.0451,20.8624Z"/><path d="M11.3821,40.6748c-1.9281,2.06-4.19,2.5217-6.9492,1.2993l.9272-1.665c3.4783.6267,4.1871.1457,5.3864-3.6505h1.3611c.9772,3.0757,1.9259,4.0823,3.7258,3.98,1.8252-.1036,2.8487-1.2853,3.3714-3.9541h1.4883c.369,2.0442,1.11,4.009,3.6832,3.9176,2.3612-.0838,3.0682-1.9208,3.3864-3.955h1.4866c.3481,2.08,1.0912,4.0379,3.6629,3.955,2.369-.0764,3.0633-1.9305,3.4-3.9546h1.4038c.1742.6158.3052,1.2366.5248,1.8238.5046,1.3494,1.8315,2.4185,3.1148,2.1132,1.3968-.3323,1.8644.3054,2.2121,1.3917-1.7488,1.3166-4.2117.8493-6.53-1.3115a5.7629,5.7629,0,0,1-4.2509,1.99,5.5106,5.5106,0,0,1-4.2356-2.0259,5.94,5.94,0,0,1-4.2777,2.0274A5.6758,5.6758,0,0,1,19.996,40.66C17.6455,43.0507,14.4494,43.6076,11.3821,40.6748Z"/><path d="M23.97,5.2893c.9919,1.4427,1.8805,2.7808,2.8164,4.0846a3.4608,3.4608,0,0,1,.0438,4.41,3.59,3.59,0,0,1-4.0185.9238,3.5309,3.5309,0,0,1-2.0165-3.9437A8.4853,8.4853,0,0,1,23.97,5.2893Z"/><path d="M18.7859,12.8271c.9258,1.3794,1.6917,2.6085,2.5489,3.77a3.6986,3.6986,0,0,1,1.0208,3.05,3.2534,3.2534,0,0,1-3.8777,2.8162,3.2407,3.2407,0,0,1-2.9132-3.601A8.274,8.274,0,0,1,18.7859,12.8271Z"/><path d="M31.533,28.46c0,.4348.0088.7494-.0032,1.0633-.0073.1915-.0464.3819-.0905.7211l-19.43-3.4426V24.9477Z"/><path d="M38.0355,19.8889l.8949-1.8344a6.3381,6.3381,0,0,1,3.6318,5.8242,6.064,6.064,0,0,1-3.6466,5.7241l-.9462-1.8571C41.185,24.7117,41.1984,23.1533,38.0355,19.8889Z"/><path d="M31.4335,22.911c.0655-1.0553.2828-1.7159,1.5221-1.8324a2.6021,2.6021,0,0,0,2.3128-2.8615A2.8107,2.8107,0,0,0,32.65,15.7292c-.234-.0245-.4726-.0035-.8264-.0035l-.4633-1.6574A4.3053,4.3053,0,0,1,36.1889,15.5a4.8162,4.8162,0,0,1,.2049,5.5892A4.6268,4.6268,0,0,1,31.4335,22.911Z"/><path d="M31.3011,24.66c2.0848-.3113,3.8132,0,4.9861,1.7383a4.5333,4.5333,0,0,1,.179,5.2814c-1.1584,1.832-2.928,2.2952-5.1259,2.0189l.4587-1.7028c2.4536-.3016,3.3925-.9494,3.4536-2.9991.044-1.48-1.2-2.4074-3.4206-2.5918Z"/><path d="M23.733,20.5861c-.2982-1.3283-.0253-1.9153,1.29-2.065,2.1484-.2444,4.27-.7275,6.3953-1.1086.44,1.6044.391,1.7026-1.1325,1.9866C28.1192,19.8029,25.9486,20.1858,23.733,20.5861Z"/><path d="M12.0451,20.8624c2.3215-.4762,2.3215-.4762,2.8675,1.2561-.4566.1022-.9071.214-1.3623.3019-.4646.09-.9337.156-1.5052.25Z"/></svg>