<svg id="Livello_1" data-name="Livello 1" xmlns="http://www.w3.org/2000/svg" viewBox="0 0 48.0005 47.9991"><defs><style>.cls-1{fill:#fff;}</style></defs><path class="cls-1" d="M24.0071,12.899,9.9233,28.5906h5.4005L9.9153,34.674h7.5392V46.8227H30.6079V34.6246h7.4773L32.6233,28.52h5.4208Zm.0195-4.1941A3.784,3.784,0,0,0,27.8,4.9042a3.7831,3.7831,0,0,0-7.5657.0283A3.7735,3.7735,0,0,0,24.0266,8.7049Z"/><path d="M24.0071,12.899,38.0441,28.52H32.6233l5.4619,6.1042H30.6079V46.8227H17.4545V34.674H9.9153l5.4085-6.0834H9.9233Zm.0031,6.059c2.1539,2.3935,4.3608,4.5474,6.1961,6.9815,1.42,1.8833,3.1,1.2839,5.0759,1.38L24.0081,14.7782,12.7378,27.334a16.3425,16.3425,0,0,1,2.076.0144,2.89,2.89,0,0,0,2.828-1.2715C19.6692,23.6836,21.8175,21.3928,24.01,18.958Z"/><path d="M24.0266,8.7049a3.7644,3.7644,0,1,1,.03-7.5282A3.8167,3.8167,0,0,1,27.8,4.9042,3.784,3.784,0,0,1,24.0266,8.7049Z"/><path class="cls-1" d="M24.01,18.958c-2.1927,2.4348-4.341,4.7256-6.3684,7.1189a2.89,2.89,0,0,1-2.828,1.2715,16.3425,16.3425,0,0,0-2.076-.0144l11.27-12.5558,11.2741,12.541c-1.9758-.0958-3.6559.5036-5.0759-1.38C28.371,23.5054,26.1641,21.3515,24.01,18.958Z"/></svg>