<svg id="Livello_1" data-name="Livello 1" xmlns="http://www.w3.org/2000/svg" viewBox="0 0 48.0005 47.9991"><defs><style>.cls-1{fill:#fff;}</style></defs><path class="cls-1" d="M45.4987,34.3294V13.6845H33.7446V34.3294ZM2.6093,34.27a2.9729,2.9729,0,0,0,3.1857-.9572q7.8783-8.299,15.9262-16.4369a3.2013,3.2013,0,0,0,.8437-3.1622,3.0894,3.0894,0,0,0-3.3,1.08Q11.4316,23.0532,3.4319,31.1547A3.0917,3.0917,0,0,0,2.6093,34.27ZM16.0716,13.6078c-1.2813,0-2.229.0621-3.1646-.0179a2.3525,2.3525,0,0,0-2.0613.8881c-2.5122,2.6529-5.0768,5.2562-7.6124,7.8871-.269.2792-.657.61-.6759.9344-.077,1.3273-.0321,2.6616-.0321,4.2955Zm6.583,6.7916L9.1076,34.3905c1.2436,0,2.1469-.0621,3.0377.0168a2.5833,2.5833,0,0,0,2.2705-.9672c2.5046-2.6563,5.0717-5.2538,7.6014-7.8866a1.8478,1.8478,0,0,0,.6086-.9539C22.6965,23.3144,22.6546,22.023,22.6546,20.3994Zm9.6612-6.63c-.9785-.3816-1.32-.0268-1.5875.7728-1.345,4.0217-2.7544,8.0219-4.1345,12.0319-.8747,2.5414-1.7379,5.0867-2.61,7.6407.8873.383,1.2938.119,1.5685-.7044,1.1414-3.4213,2.34-6.8237,3.5117-10.235C30.1439,20.1318,31.216,16.9856,32.3158,13.77ZM7.3032,13.6523H2.5868V17.821ZM22.6186,30.3442l-4.4047,3.9424h4.4047Z"/><path d="M45.4987,34.3294H33.7446V13.6845H45.4987ZM34.8875,14.9055A13.382,13.382,0,0,0,38.2492,22.77c.9646,1.09.9683,1.4328-.0024,2.5159a13.0727,13.0727,0,0,0-3.3461,7.7888H44.354A12.9917,12.9917,0,0,0,41.0106,25.28c-.9532-1.0645-.9249-1.4.0015-2.5273a17.3645,17.3645,0,0,0,1.6634-2.3166,11.1508,11.1508,0,0,0,1.6214-5.53Z"/><path d="M2.6093,34.27a3.0917,3.0917,0,0,1,.8226-3.1152q7.9935-8.1054,15.8334-16.3607a3.0894,3.0894,0,0,1,3.3-1.08,3.2013,3.2013,0,0,1-.8437,3.1622Q13.6734,25.0113,5.795,33.3127A2.9729,2.9729,0,0,1,2.6093,34.27Z"/><path d="M16.0716,13.6078,2.5253,27.595c0-1.6339-.0449-2.9682.0321-4.2955.0189-.3248.4069-.6552.6759-.9344,2.5356-2.6309,5.1-5.2342,7.6124-7.8871A2.3525,2.3525,0,0,1,12.907,13.59C13.8426,13.67,14.79,13.6078,16.0716,13.6078Z"/><path d="M22.6546,20.3994c0,1.6236.0419,2.915-.0288,4.2a1.8478,1.8478,0,0,1-.6086.9539c-2.53,2.6328-5.0968,5.23-7.6014,7.8866a2.5833,2.5833,0,0,1-2.27.9672c-.8908-.0789-1.7941-.0168-3.0377-.0168Z"/><path d="M32.3158,13.77c-1.1,3.2161-2.1719,6.3623-3.2516,9.506-1.1716,3.4113-2.37,6.8137-3.5117,10.235-.2747.8234-.6812,1.0874-1.5685.7044.8719-2.554,1.7351-5.0993,2.61-7.6407,1.38-4.01,2.7895-8.01,4.1345-12.0319C30.9957,13.7427,31.3373,13.3879,32.3158,13.77Z"/><path d="M7.3032,13.6523,2.5868,17.821V13.6523Z"/><path d="M22.6186,30.3442v3.9424H18.2139Z"/><path class="cls-1" d="M34.8875,14.9055h9.4094a11.1508,11.1508,0,0,1-1.6214,5.53,17.3645,17.3645,0,0,1-1.6634,2.3166c-.9264,1.1268-.9547,1.4628-.0015,2.5273a12.9917,12.9917,0,0,1,3.3434,7.7953H34.9007a13.0727,13.0727,0,0,1,3.3461-7.7888c.9707-1.0831.967-1.4255.0024-2.5159A13.382,13.382,0,0,1,34.8875,14.9055Z"/></svg>