<svg id="Livello_1" data-name="Livello 1" xmlns="http://www.w3.org/2000/svg" viewBox="0 0 48.0005 47.9991"><defs><style>.cls-1{fill:#fff;}</style></defs><path class="cls-1" d="M3.9044,37.1359H44.096V13.6175H38.1388V10.8632H31.9172l-.1239,2.6784H16.07V10.8779H9.81v2.7952H3.9044Z"/><path d="M3.9044,37.1359V13.6731H9.81V10.8779h6.26v2.6637H31.7933l.1239-2.6784h6.2216v2.7543H44.096V37.1359ZM6.4268,16.2146V34.6991H41.5373V16.2146Z"/><path class="cls-1" d="M6.4268,16.2146H41.5373V34.6991H6.4268ZM31.605,24.0693h2.8544v2.8286l1.8884-.0992V23.9919h2.7011v-1.85H36.2547v-2.74H34.38v2.7927H31.605ZM8.9531,23.9262h7.4014V22.265H8.9531Z"/><path d="M31.605,24.0693V22.1952H34.38V19.4025h1.8747v2.74h2.7942v1.85H36.3478v2.8068l-1.8884.0992V24.0693Z"/><path d="M8.9531,23.9262V22.265h7.4014v1.6612Z"/></svg>