<svg id="Livello_1" data-name="Livello 1" xmlns="http://www.w3.org/2000/svg" viewBox="0 0 48.0005 47.9991"><defs><style>.cls-1{fill:#fff;}</style></defs><path class="cls-1" d="M14.7054.4708c0,2.52-.0329,4.8988.018,7.2752a2.2425,2.2425,0,0,1-.85,1.93A14.7668,14.7668,0,0,0,8.7675,23.2337a15.33,15.33,0,0,0,28.3753,5.7186c3.322-5.5925,2.9288-12.881-1.5625-17.5787a7.9884,7.9884,0,0,1-2.4266-6.9159,27.3792,27.3792,0,0,0,.01-3.0939,7.6543,7.6543,0,0,0-.113-.893Zm4.0817,39.257c0,2.1053-.0009,3.9585,0,5.8117.001,1.659.093,1.7255,1.8817,1.28,0-1.3187-.0105-2.6628.0039-4.0066.0088-.8146.2047-1.5721,1.21-1.5729,1.0331-.0009,1.1513.7553,1.14,1.5827-.018,1.3712-.0049,2.7429-.0049,4.1163H24.91c0-1.42-.0261-2.7617.0157-4.1012a1.9154,1.9154,0,0,1,.358-1.1951,1.2623,1.2623,0,0,1,1.1373-.31,1.7191,1.7191,0,0,1,.7563,1.1746c.0909,1.4512.035,2.9115.035,4.4274h1.8135c0-1.8611.0649-3.6418-.024-5.4148A1.792,1.792,0,0,0,27.11,39.7445a12.3559,12.3559,0,0,0-2.6794.6365,2.2731,2.2731,0,0,0-3.3007-.1682Zm-6.9495,7.1965h1.8678c0-1.7959.0414-3.4981-.0145-5.1971a1.9582,1.9582,0,0,0-1.9622-1.9921,12.0478,12.0478,0,0,0-2.3943.4419l-2.0066-.4435v7.1857H9.15c0-1.4051,0-2.71,0-4.0153,0-.98.4478-1.63,1.4567-1.6632,1.08-.0353,1.255.7213,1.2379,1.6137C11.8186,44.19,11.8376,45.5263,11.8376,46.9243Zm22.44-7.1771v7.177h1.79c0-1.3932-.0258-2.6931.0078-3.9914.0294-1.1348.62-1.7762,1.5335-1.7021,1.0727.0869,1.1862.8476,1.1723,1.7132-.0213,1.33-.0056,2.66-.0056,3.9952h1.8874c0-1.6552.0261-3.2316-.0072-4.8067a2.23,2.23,0,0,0-2.6721-2.4236,8.61,8.61,0,0,0-1.9444.669l.0915-.228ZM15.7741,47.5283,18.32,38.9075l-.2214-.3118c-.4882.2312-1.2963.3569-1.4135.71-.8926,2.6936-1.65,5.4317-2.4692,8.2221Zm14.9891-7.6374v7.0478h1.7052V39.8909Zm1.7141-1.1872V37.1682H30.7319v1.5355Z"/><path d="M14.7054.4708H33.051a7.6543,7.6543,0,0,1,.113.893,27.3792,27.3792,0,0,1-.01,3.0939A7.9884,7.9884,0,0,0,35.58,11.3736c4.4913,4.6977,4.8845,11.9862,1.5625,17.5787A15.33,15.33,0,0,1,8.7675,23.2337,14.7668,14.7668,0,0,1,13.8737,9.6758a2.2425,2.2425,0,0,0,.85-1.93C14.6725,5.37,14.7054,2.9913,14.7054.4708Zm2.5538,2.5271c0,2.0426-.0552,3.9462.0228,5.8444a2.2912,2.2912,0,0,1-1.0688,2.1617,12.6329,12.6329,0,0,0-4.4151,14.247,12.8271,12.8271,0,0,0,24.2726.1125,12.6334,12.6334,0,0,0-4.2038-14.21,2.73,2.73,0,0,1-1.2234-2.5719c.0835-1.8479.0226-3.7023.0226-5.5835Z"/><path d="M18.7871,39.7278l2.3424.485a2.2731,2.2731,0,0,1,3.3007.1682,12.3559,12.3559,0,0,1,2.6794-.6365A1.792,1.792,0,0,1,29.0017,41.52c.0889,1.773.024,3.5537.024,5.4148H27.2122c0-1.5159.0559-2.9762-.035-4.4274a1.7191,1.7191,0,0,0-.7563-1.1746,1.2623,1.2623,0,0,0-1.1373.31,1.9154,1.9154,0,0,0-.358,1.1951c-.0418,1.34-.0157,2.6811-.0157,4.1012H23.0181c0-1.3734-.0131-2.7451.0049-4.1163.0108-.8274-.1074-1.5836-1.14-1.5827-1.0049.0008-1.2008.7583-1.21,1.5729-.0144,1.3438-.0039,2.6879-.0039,4.0066-1.7887.4452-1.8807.3787-1.8817-1.28C18.7862,43.6863,18.7871,41.8331,18.7871,39.7278Z"/><path d="M11.8376,46.9243c0-1.398-.019-2.7344.0067-4.07.0171-.8924-.1579-1.649-1.2379-1.6137-1.0089.033-1.4571.6834-1.4567,1.6632.0005,1.3051,0,2.61,0,4.0153H7.3278V39.7335l2.0066.4435a12.0478,12.0478,0,0,1,2.3943-.4419,1.9582,1.9582,0,0,1,1.9622,1.9921c.0559,1.699.0145,3.4012.0145,5.1971Z"/><path d="M34.2773,39.7472l1.8534.4026-.0915.228a8.61,8.61,0,0,1,1.9444-.669,2.23,2.23,0,0,1,2.6721,2.4236c.0333,1.5751.0072,3.1515.0072,4.8067H38.7755c0-1.3354-.0157-2.6656.0056-3.9952.0139-.8656-.1-1.6263-1.1723-1.7132-.9136-.0741-1.5041.5673-1.5335,1.7021-.0336,1.2983-.0078,2.5982-.0078,3.9914h-1.79Z"/><path d="M15.7741,47.5283H14.2159c.819-2.79,1.5766-5.5285,2.4692-8.2221.1172-.3536.9253-.4793,1.4135-.71l.2214.3118Z"/><path d="M30.7632,39.8909h1.7052v7.0478H30.7632Z"/><path d="M32.4773,38.7037H30.7319V37.1682h1.7454Z"/><path class="cls-1" d="M17.2592,2.9979H30.6661c0,1.8812.0609,3.7356-.0226,5.5835a2.73,2.73,0,0,0,1.2234,2.5719,12.6334,12.6334,0,0,1,4.2038,14.21,12.8271,12.8271,0,0,1-24.2726-.1125,12.6329,12.6329,0,0,1,4.4151-14.247A2.2912,2.2912,0,0,0,17.282,8.8423C17.204,6.9441,17.2592,5.0405,17.2592,2.9979Z"/></svg>