<svg id="Livello_1" data-name="Livello 1" xmlns="http://www.w3.org/2000/svg" viewBox="0 0 48.0005 47.9991"><defs><style>.cls-1{fill:#fff;}</style></defs><path class="cls-1" d="M10.3392,6.27c0,2.5476-.0325,5.0414.0172,7.5335a2.5432,2.5432,0,0,1-.9293,2.1471,14.6526,14.6526,0,0,0-4.8613,13.64,15.0741,15.0741,0,1,0,24.8918-13.65,2.3563,2.3563,0,0,1-.9043-2.0266c.0547-2.5277.0194-5.0573.0194-7.6439ZM42.0426,21.4q0-2.8566,0-5.7131c-.0006-3.0152.017-6.0306-.0108-9.0455a2.1729,2.1729,0,0,0-2.1833-2.3195,2.2331,2.2331,0,0,0-2.1644,2.3625c-.0123.3567-.0034.7141-.0034,1.0712,0,9.3233.01,18.6467-.0257,27.97A2.8848,2.8848,0,0,1,37.06,37.39a3.8314,3.8314,0,0,0,.2449,5.2745,3.7823,3.7823,0,0,0,5.0957.0516,3.8382,3.8382,0,0,0,.3428-5.27,3.3838,3.3838,0,0,1-.67-1.8836C42.0174,30.8424,42.0427,26.1209,42.0426,21.4Z"/><path d="M10.3392,6.27H28.5727c0,2.5866.0353,5.1162-.0194,7.6439a2.3563,2.3563,0,0,0,.9043,2.0266,15.0838,15.0838,0,1,1-24.8918,13.65,14.6526,14.6526,0,0,1,4.8613-13.64,2.5432,2.5432,0,0,0,.9293-2.1471C10.3067,11.3117,10.3392,8.8179,10.3392,6.27Zm2.494,2.51c0,2.27-.0341,4.4444.0185,6.6164a1.7934,1.7934,0,0,1-.8473,1.6557A12.2252,12.2252,0,0,0,6.9378,28.5867,12.5827,12.5827,0,1,0,27.0152,17.16a2.1918,2.1918,0,0,1-.9849-2.0723c.0539-2.0857.0171-4.1737.0171-6.3081Z"/><path d="M42.0427,21.4c0,4.7212-.0253,9.4427.03,14.1632a3.3838,3.3838,0,0,0,.67,1.8836,3.8382,3.8382,0,0,1-.3428,5.27,3.7823,3.7823,0,0,1-5.0957-.0516A3.8314,3.8314,0,0,1,37.06,37.39a2.8848,2.8848,0,0,0,.5953-1.6649c.0359-9.3233.0256-18.6467.0257-27.97,0-.3571-.0089-.7145.0034-1.0712a2.2331,2.2331,0,0,1,2.1644-2.3625,2.1729,2.1729,0,0,1,2.1833,2.3195c.0278,3.0149.01,6.03.0108,9.0455Q42.0431,18.5432,42.0427,21.4Zm-1.3069,3.0947a5.3534,5.3534,0,0,0,.0747-.5785q.006-8.5156.0046-17.0311c0-.1585.0521-.3716-.029-.4656-.26-.3017-.5665-.769-.8653-.7768-.32-.0084-.7112.3852-.9563.6941-.141.1778-.0679.5356-.068.8124q-.0041,8.1582.0017,16.3164c0,.3375.0543.6749.0847,1.0291Z"/><path class="cls-1" d="M12.8332,8.78H26.0474c0,2.1344.0368,4.2224-.0171,6.3081a2.1918,2.1918,0,0,0,.9849,2.0723A12.597,12.597,0,1,1,6.9378,28.5867a12.2252,12.2252,0,0,1,5.0666-11.5346,1.7934,1.7934,0,0,0,.8473-1.6557C12.7991,13.2244,12.8332,11.05,12.8332,8.78Zm6.6214,7.05c-2.0388,3.551-4.0117,6.8471-5.8426,10.22a6.5122,6.5122,0,0,0,1.6008,8.0821,6.5919,6.5919,0,0,0,8.1549.2687,6.3952,6.3952,0,0,0,2.0827-7.96C23.62,22.896,21.5347,19.4828,19.4546,15.83Z"/><path class="cls-1" d="M40.7358,24.4944H38.9829c-.03-.3542-.0844-.6916-.0847-1.0291q-.008-8.1582-.0017-16.3164c0-.2768-.073-.6346.068-.8124.2451-.3089.6361-.7025.9563-.6941.2988.0078.6049.4751.8653.7768.0811.094.029.3071.029.4656q0,8.5155-.0046,17.0311A5.3534,5.3534,0,0,1,40.7358,24.4944Z"/><path d="M19.4546,15.83c2.08,3.6533,4.1657,7.0665,5.9958,10.6111a6.3952,6.3952,0,0,1-2.0827,7.96,6.5919,6.5919,0,0,1-8.1549-.2687,6.5122,6.5122,0,0,1-1.6008-8.0821C15.4429,22.6766,17.4158,19.3805,19.4546,15.83Zm0,2.4611c-1.7059,2.9823-3.3488,5.6944-4.8286,8.4923a5.2344,5.2344,0,0,0,1.4291,6.4461,5.3664,5.3664,0,0,0,6.6239.1406,5.1717,5.1717,0,0,0,1.6626-6.38C22.869,24.1051,21.1771,21.3317,19.4549,18.2906Z"/><path class="cls-1" d="M19.4549,18.2906c1.7222,3.0411,3.4141,5.8145,4.887,8.6994a5.1717,5.1717,0,0,1-1.6626,6.38,5.3664,5.3664,0,0,1-6.6239-.1406,5.2344,5.2344,0,0,1-1.4291-6.4461C16.1061,23.985,17.749,21.2729,19.4549,18.2906Z"/></svg>