<svg id="Livello_1" data-name="Livello 1" xmlns="http://www.w3.org/2000/svg" viewBox="0 0 48.0005 47.9991"><defs><style>.cls-1{fill:#fff;}</style></defs><path class="cls-1" d="M24.1444,37.7032a22.9022,22.9022,0,0,1,2.999-.35c2.601.0606,4.4525-.8,5.4157-3.4417A6.1213,6.1213,0,0,1,37.215,30.042a5.4282,5.4282,0,0,0,2.532-1.7779,4.7154,4.7154,0,0,0,.6423-5.456,1.2922,1.2922,0,0,1,.1416-1.1471,5.2,5.2,0,0,0,.0581-7.157,2.1423,2.1423,0,0,0-1.64-.6365,1.7521,1.7521,0,0,0-1.0476,1.2153,17.508,17.508,0,0,0-.1983,3.31c.007,1.0537-.2418,1.2978-1.2195.9534a5.2356,5.2356,0,0,1-.8587-.4119,9.8419,9.8419,0,0,0-6.58-1.0127A16.6344,16.6344,0,0,0,22.7957,20.45c-1.5178.929-2.2019.8475-3.383-.3182-.8472-.8361-1.6951-1.6717-2.535-2.5153-.7185-.7217-.6709-1.18.3022-1.5788,1.2821-.5249,2.6114-.9356,3.926-1.3792a9.1515,9.1515,0,0,0,4.859-3.2622,8.3459,8.3459,0,0,0,.6308-1.6611l-7.3345,2.1684-.135-.3207c.9718-1.497,2.84-2.3894,3.0552-4.5157a15.0263,15.0263,0,0,0-3.85,1.4484,14.2323,14.2323,0,0,0-5.0945,5.72,2.2375,2.2375,0,0,1-1.013,1.0713,9.3134,9.3134,0,0,0-5.2013,4.2955c-1.3934,2.2668-1.4115,2.2363.36,4.0839a4.16,4.16,0,0,0,4.093,1.3468c1.128-.2424,1.4963.2147,1.9326,1.1507a18.2112,18.2112,0,0,0,2.6093,4.492c1.3434,1.507,1.81,3.2771,2.4884,5.0156a9.7157,9.7157,0,0,0-1.5926.976,1.5436,1.5436,0,0,0-.4665,1.1056c.0136.1963.5759.4542.9175.5052a4.4483,4.4483,0,0,0,1.66-.0131,3.0741,3.0741,0,0,1,2.9727.9008,13.3721,13.3721,0,0,0,3.181,1.74c.2209.1023.6942-.1165.91-.33.0962-.0949-.094-.59-.2644-.823C25.3835,39.15,24.8812,38.5918,24.1444,37.7032Z"/><path d="M24.1444,37.7032c.7368.8886,1.2391,1.4469,1.68,2.05.17.233.3606.7281.2644.823-.216.2134-.6893.4322-.91.33a13.3721,13.3721,0,0,1-3.181-1.74,3.0741,3.0741,0,0,0-2.9727-.9008,4.4483,4.4483,0,0,1-1.66.0131c-.3416-.051-.9039-.3089-.9175-.5052a1.5436,1.5436,0,0,1,.4665-1.1056,9.7157,9.7157,0,0,1,1.5926-.976c-.6788-1.7385-1.145-3.5086-2.4884-5.0156a18.2112,18.2112,0,0,1-2.6093-4.492c-.4363-.936-.8046-1.3931-1.9326-1.1507a4.16,4.16,0,0,1-4.093-1.3468c-1.7717-1.8476-1.7536-1.8171-.36-4.0839A9.3134,9.3134,0,0,1,12.224,15.307a2.2375,2.2375,0,0,0,1.013-1.0713,14.2323,14.2323,0,0,1,5.0945-5.72,15.0263,15.0263,0,0,1,3.85-1.4484c-.2152,2.1263-2.0834,3.0187-3.0552,4.5157l.135.3207L26.5957,9.735a8.3459,8.3459,0,0,1-.6308,1.6611,9.1515,9.1515,0,0,1-4.859,3.2622c-1.3146.4436-2.6439.8543-3.926,1.3792-.9731.3983-1.0207.8571-.3022,1.5788.84.8436,1.6878,1.6792,2.535,2.5153,1.1811,1.1657,1.8652,1.2472,3.383.3182a16.6344,16.6344,0,0,1,6.2493-2.5281,9.8419,9.8419,0,0,1,6.58,1.0127,5.2356,5.2356,0,0,0,.8587.4119c.9777.3444,1.2265.1,1.2195-.9534a17.508,17.508,0,0,1,.1983-3.31,1.7521,1.7521,0,0,1,1.0476-1.2153,2.1423,2.1423,0,0,1,1.64.6365,5.2,5.2,0,0,1-.0581,7.157,1.2922,1.2922,0,0,0-.1416,1.1471,4.7154,4.7154,0,0,1-.6423,5.456,5.4282,5.4282,0,0,1-2.532,1.7779,6.1213,6.1213,0,0,0-4.6559,3.8691c-.9632,2.6415-2.8147,3.5023-5.4157,3.4417A22.9022,22.9022,0,0,0,24.1444,37.7032Zm-.8852-2.4747c.4773-.0444.7971-.0512,1.1083-.1066,4.0287-.7162,3.017.1215,4.9178-3.6472a5.3752,5.3752,0,0,0,.29-1.2994,5.1628,5.1628,0,0,0-1.3638-.1483,11.9444,11.9444,0,0,1-5.99-.0654c-.7525-.2624-1.19.2053-1.0643.9455.1912,1.124.4887,2.2321.7851,3.3352C22.1377,34.9713,22.5573,35.4527,23.2592,35.2285Z"/><path class="cls-1" d="M23.2592,35.2285c-.7019.2242-1.1215-.2572-1.3174-.9862-.2964-1.1031-.5939-2.2112-.7851-3.3352-.1258-.74.3118-1.2079,1.0643-.9455a11.9444,11.9444,0,0,0,5.99.0654,5.1628,5.1628,0,0,1,1.3638.1483,5.3752,5.3752,0,0,1-.29,1.2994c-1.9008,3.7687-.8891,2.931-4.9178,3.6472C24.0563,35.1773,23.7365,35.1841,23.2592,35.2285Z"/></svg>