<svg id="Livello_1" data-name="Livello 1" xmlns="http://www.w3.org/2000/svg" viewBox="0 0 48.0005 47.9991"><defs><style>.cls-1{fill:#fff;}</style></defs><path class="cls-1" d="M12.8461,23.1346l.4837-.22a3.3676,3.3676,0,0,1,.502,1.1117c.058,1.3891-.0087,2.7829.0223,4.1738a2.4868,2.4868,0,0,0,2.9216,2.5336,2.5693,2.5693,0,0,0,2.4543-2.808c-.078-.8657-.3955-1.7118-.453-2.5768-.1067-1.6045-1.4466-3.2452.0825-4.8249.0394-.0407.0091-.1522.006-.23-.0837-2.0887-2.7031-4.6173-5.3286-4.7812a6.521,6.521,0,0,0,.9786,1.3309,5.5231,5.5231,0,0,1,2.3223,3.6129c.1825,1.158.2131,2.34.3915,3.4987.1869,1.2144.5156,2.4072.6966,3.6222.1665,1.1178-.357,1.8151-1.2879,1.8949-.965.0828-1.543-.4877-1.5764-1.641-.031-1.0725.0018-2.1469.0078-3.22.0127-2.251-.0621-2.359-2.2315-3.0877,0-1.5487,0-3.1341,0-4.7194,0-.845-.3515-1.3788-1.2625-1.3812q-3.34-.0089-6.68,0c-.8852.0033-1.2872.4732-1.2772,1.3548.0158,1.3915.0032,2.7834.0031,4.1751q0,5.121,0,10.2421l-.2894-.1437L2.3525,32.49H14.16c-.4326-.5389-.6779-.8317-.9081-1.1359-.1468-.1941-.3864-.4039-.3885-.6088C12.8368,28.2089,12.8461,25.6717,12.8461,23.1346Zm16.74,8.841a2.3858,2.3858,0,0,0,2.5732-.7769Q38.4668,24.7869,44.88,18.48a2.24,2.24,0,0,0,.6275-2.4732,2.4493,2.4493,0,0,0-2.6813.8971q-6.1826,6.2839-12.462,12.472A2.3747,2.3747,0,0,0,29.5861,31.9756ZM39.8648,15.959c-1.7749-.1535-3.4376-.2441-4.8011,1.497a28.6923,28.6923,0,0,1-4.4452,4.4572C28.9938,23.24,29.59,24.81,29.5124,26.1781Zm5.7632,5.7767L35.3,32.0762a8.8212,8.8212,0,0,1,1.3929.0121,3.1925,3.1925,0,0,0,2.9941-1.2334c1.7048-1.828,3.5261-3.5469,5.2754-5.3343A2.0414,2.0414,0,0,0,45.598,24.46C45.689,23.5267,45.628,22.5788,45.628,21.7357Zm-17.6007-7.848c-.94-.3433-1.35-.05-1.6227.7564-.6863,2.0279-1.4554,4.0278-2.1866,6.0406q-2.4351,6.7024-4.8674,13.4119c.91.367,1.36.08,1.6377-.7857.4844-1.5095,1.0644-2.9883,1.6062-4.4793C24.3945,23.8789,26.1954,18.9265,28.0273,13.8877Zm17.54,18.1537V29.1108L42.45,32.0414ZM29.5213,18.7975,32.2855,16.01H29.5213Z"/><path d="M12.8461,23.1346c0,2.5371-.0093,5.0743.0175,7.611.0021.2049.2417.4147.3885.6088.23.3042.4755.597.9081,1.1359H2.3525l.9791-1.439.2894.1437q0-5.121,0-10.2421c0-1.3917.0127-2.7836-.0031-4.1751-.01-.8816.392-1.3515,1.2772-1.3548q3.34-.0124,6.68,0c.911.0024,1.2625.5362,1.2625,1.3812,0,1.5853,0,3.1707,0,4.7194,2.1694.7287,2.2442.8367,2.2315,3.0877-.006,1.0736-.0388,2.148-.0078,3.22.0334,1.1533.6114,1.7238,1.5764,1.641.9309-.08,1.4544-.7771,1.2879-1.8949-.181-1.215-.51-2.4078-.6966-3.6222-.1784-1.1588-.209-2.3407-.3915-3.4987a5.5231,5.5231,0,0,0-2.3223-3.6129,6.521,6.521,0,0,1-.9786-1.3309c2.6255.1639,5.2449,2.6925,5.3286,4.7812.0031.0782.0334.19-.006.23-1.5291,1.58-.1892,3.22-.0825,4.8249.0575.865.375,1.7111.453,2.5768a2.5693,2.5693,0,0,1-2.4543,2.808,2.4868,2.4868,0,0,1-2.9216-2.5336c-.031-1.3909.0357-2.7847-.0223-4.1738a3.3676,3.3676,0,0,0-.502-1.1117Zm-7.924,8.1507h6.5284V23.0608H4.9221Zm6.5508-14.5806c-2.02,0-3.9254-.0247-5.829.0283-.2655.0074-.7343.3864-.7453.6111-.0689,1.4131-.0349,2.8312-.0349,4.3163h6.6092Z"/><path d="M29.5861,31.9756a2.3747,2.3747,0,0,1,.7782-2.5995q6.2811-6.1854,12.462-12.472a2.4493,2.4493,0,0,1,2.6813-.8971A2.24,2.24,0,0,1,44.88,18.48q-6.4136,6.3054-12.7208,12.7185A2.3858,2.3858,0,0,1,29.5861,31.9756Z"/><path d="M39.8648,15.959,29.5124,26.1781c.0772-1.3685-.5186-2.9379,1.1061-4.2649a28.6923,28.6923,0,0,0,4.4452-4.4572C36.4272,15.7149,38.09,15.8055,39.8648,15.959Z"/><path d="M45.628,21.7357c0,.8431.061,1.791-.03,2.7241a2.0414,2.0414,0,0,1-.6358,1.0608c-1.7493,1.7874-3.5706,3.5063-5.2754,5.3343a3.1925,3.1925,0,0,1-2.9941,1.2334A8.8212,8.8212,0,0,0,35.3,32.0762Z"/><path d="M28.0273,13.8877c-1.8319,5.0388-3.6328,9.9912-5.4328,14.9439-.5418,1.491-1.1218,2.97-1.6062,4.4793-.2778.8658-.7273,1.1527-1.6377.7857q2.4353-6.7113,4.8674-13.4119c.7312-2.0128,1.5-4.0127,2.1866-6.0406C26.6776,13.8375,27.0869,13.5444,28.0273,13.8877Z"/><path d="M45.5677,32.0414H42.45l3.1182-2.9306Z"/><path d="M29.5213,18.7975V16.01h2.7642Z"/><path class="cls-1" d="M4.9221,31.2853V23.0608h6.5284v8.2245Z"/><path class="cls-1" d="M11.4729,16.7047V21.66H4.8637c0-1.4851-.034-2.9032.0349-4.3163.011-.2247.48-.6037.7453-.6111C7.5475,16.68,9.4532,16.7047,11.4729,16.7047Z"/></svg>