<svg id="Livello_1" data-name="Livello 1" xmlns="http://www.w3.org/2000/svg" viewBox="0 0 48.0005 47.9991"><defs><style>.cls-1{fill:#fff;}</style></defs><path class="cls-1" d="M44.921,17.4263C44.4673,12.79,39.4023,7.57,35.077,7.2442a1.9441,1.9441,0,0,0,.98,2.4424,10.7982,10.7982,0,0,1,4.8247,7.4959c.3869,2.3743.4787,4.7954.7433,7.1911.3135,2.8384.7155,5.6676.9952,8.509a2.5658,2.5658,0,0,1-3.3386,2.8407A2.7249,2.7249,0,0,1,37.458,32.828c-.017-3.097.0257-6.1947-.02-9.2911a4.2843,4.2843,0,0,0-4.1406-4.5016,4.785,4.785,0,0,1-.5438-.1387c0-2.7554.0148-5.4877-.0045-8.22-.017-2.403-1.1912-3.57-3.6048-3.58-3.6206-.016-7.2412-.01-10.8618-.0028-2.7183.0055-3.8175,1.1133-3.8182,3.8378q-.0036,13.04-.001,26.08V38.422l-1.51.2237v2.2671H34.2174V38.6157l-1.3549-.19V21.5372c1.5459.2072,2.1066.8084,2.1145,2.2709.0171,3.1765-.02,6.3533.0149,9.53a5.087,5.087,0,1,0,10.12-.7978c-.522-4.0918-.9929-8.19-1.5038-12.2835C43.453,19.014,43.5888,17.9375,44.921,17.4263ZM14.397,24.0712c-.4933-.2954-.8129-.5016-1.1457-.6838-2.746-1.5032-5.477-3.0351-8.2534-4.48a1.5427,1.5427,0,0,1-.9672-1.6667c.0594-1.0951.0148-2.1959.0148-3.3477h-1.2V30.366Z"/><path d="M44.921,17.4263c-1.3322.5112-1.468,1.5877-1.313,2.83.5109,4.0933.9818,8.1917,1.5038,12.2835a5.087,5.087,0,1,1-10.12.7978c-.035-3.1762.0022-6.353-.0149-9.53-.0079-1.4625-.5686-2.0637-2.1145-2.2709V38.426l1.3549.19v2.2971H12.9543V38.6457l1.51-.2237V37.0113q0-13.04.001-26.08c.0007-2.7245,1.1-3.8323,3.8182-3.8378,3.6206-.0074,7.2412-.0132,10.8618.0028,2.4136.0106,3.5878,1.1774,3.6048,3.58.0193,2.732.0045,5.4643.0045,8.22a4.785,4.785,0,0,0,.5438.1387,4.2843,4.2843,0,0,1,4.1406,4.5016c.0452,3.0964.0025,6.1941.02,9.2911a2.7249,2.7249,0,0,0,1.8241,2.8953,2.5658,2.5658,0,0,0,3.3386-2.8407c-.28-2.8414-.6817-5.6706-.9952-8.509-.2646-2.3957-.3564-4.8168-.7433-7.1911a10.7982,10.7982,0,0,0-4.8247-7.4959,1.9435,1.9435,0,0,1-.98-2.4425C39.4023,7.57,44.4673,12.79,44.921,17.4263ZM30.1589,38.5486V21.5529H17.1257a2.2486,2.2486,0,0,0-.13.4967c-.0091,5.235-.0025,10.47-.0241,15.7049-.0031.76.42.8022.9939.7988,2.1856-.013,4.3714-.0048,6.5571-.0047Zm-.0217-19.5353V9.6158H17.0918v9.3975Z"/><path d="M14.397,24.0712,2.8451,30.366V13.8929h1.2c0,1.1518.0446,2.2526-.0148,3.3477a1.5427,1.5427,0,0,0,.9672,1.6667c2.7764,1.445,5.5074,2.9769,8.2534,4.48C13.5841,23.57,13.9037,23.7758,14.397,24.0712ZM4.1044,19.808v8.4688l7.7666-4.2345Z"/><path class="cls-1" d="M30.1589,38.5486H24.5228c-2.1857,0-4.3715-.0083-6.5571.0047-.5738.0034-.997-.0385-.9939-.7988.0216-5.2349.015-10.47.0241-15.7049a2.2486,2.2486,0,0,1,.13-.4967H30.1589Z"/><path class="cls-1" d="M30.1372,19.0133H17.0918V9.6158H30.1372Z"/><path class="cls-1" d="M4.1044,19.808l7.7666,4.2343L4.1044,28.2768Z"/></svg>