<svg id="Livello_1" data-name="Livello 1" xmlns="http://www.w3.org/2000/svg" viewBox="0 0 48.0005 47.9991"><defs><style>.cls-1{fill:#fff;}</style></defs><path class="cls-1" d="M11.586,38.7964a7.2955,7.2955,0,0,0,5.2164-2.6233q9.3144-10.6279,18.665-21.2242a6.42,6.42,0,0,0,1.1089-1.6716A4.9531,4.9531,0,0,0,34.86,7.3393a5.0426,5.0426,0,0,0-6.4646.4256q-6.6134,5.7527-13.2036,11.5319c-2.8132,2.4594-5.6439,4.8993-8.4292,7.39a6.7915,6.7915,0,0,0-1.8752,7.71A7.0826,7.0826,0,0,0,11.586,38.7964ZM44.1652,40.392c-.3986-.02-.6722-.0465-.9457-.0466q-19.15-.003-38.3-.0009c-.2383,0-.5226-.0634-.7022.0432a.8372.8372,0,0,0-.3821.6.7513.7513,0,0,0,.3889.5862,3.7083,3.7083,0,0,0,1.0647.0485q18.5534.0016,37.1067,0c.4768,0,.9539-.0081,1.43-.03a1.1667,1.1667,0,0,0,.34-.1427Z"/><path d="M11.586,38.7964a7.0826,7.0826,0,0,1-6.6982-4.4,6.7915,6.7915,0,0,1,1.8752-7.71c2.7853-2.4907,5.616-4.9306,8.4292-7.39q6.5991-5.7692,13.2036-11.5319A5.0426,5.0426,0,0,1,34.86,7.3393a4.9531,4.9531,0,0,1,1.7159,5.938,6.42,6.42,0,0,1-1.1089,1.6716q-9.3216,10.6217-18.665,21.2242A7.2955,7.2955,0,0,1,11.586,38.7964ZM11.37,36.2559a4.554,4.554,0,0,0,3.6046-1.7816q4.0771-4.67,8.1872-9.3111Q28.4,19.2124,33.6359,13.26a2.5118,2.5118,0,0,0-.1084-3.7924,2.6026,2.6026,0,0,0-3.5636.2472q-6.2085,5.3963-12.3956,10.8169c-3.0224,2.6409-6.0519,5.2737-9.0578,7.9333A4.4017,4.4017,0,0,0,11.37,36.2559Z"/><path d="M44.1652,40.392V41.45a1.1667,1.1667,0,0,1-.34.1427c-.4762.0221-.9533.03-1.43.03q-18.5534.002-37.1067,0a3.7083,3.7083,0,0,1-1.0647-.0485.7513.7513,0,0,1-.3889-.5862.8372.8372,0,0,1,.3821-.6c.18-.1066.4639-.0432.7022-.0432q19.15-.0015,38.3.0009C43.493,40.3455,43.7666,40.3717,44.1652,40.392Z"/><path class="cls-1" d="M11.3692,36.2549a4.401,4.401,0,0,1-2.8587-7.79c3.0059-2.66,6.0354-5.2924,9.0578-7.9333q6.1944-5.4124,12.3956-10.8169a2.6026,2.6026,0,0,1,3.5636-.2472,2.5118,2.5118,0,0,1,.1084,3.7924q-5.23,5.9583-10.4744,11.9032-4.0959,4.6534-8.1872,9.3111A4.55,4.55,0,0,1,11.3692,36.2549Zm3.17-4.4016a3.1453,3.1453,0,0,0-6.2884-.0989,3.2144,3.2144,0,0,0,3.1533,3.22A3.2164,3.2164,0,0,0,14.5389,31.8533ZM31.8787,9.69c-.58.8206-1.1064,1.25-1.1866,1.7512A.9981.9981,0,0,0,31.9188,12.62a1.7143,1.7143,0,0,0,1.08-1.2C33.0354,10.99,32.4413,10.5063,31.8787,9.69Z"/><path d="M14.5389,31.8533a3.2164,3.2164,0,0,1-3.1351,3.1206,3.2144,3.2144,0,0,1-3.1533-3.2195,3.1453,3.1453,0,0,1,6.2884.0989ZM11.336,29.955a1.8422,1.8422,0,0,0-1.84,1.9048,1.9105,1.9105,0,0,0,1.895,1.8821,1.8855,1.8855,0,0,0,1.8882-1.9951A1.8308,1.8308,0,0,0,11.336,29.955Z"/><path d="M31.8787,9.69c.5626.8165,1.1567,1.3,1.12,1.73a1.7143,1.7143,0,0,1-1.08,1.2005.9981.9981,0,0,1-1.2267-1.1794C30.7723,10.94,31.2986,10.51,31.8787,9.69Z"/><path class="cls-1" d="M11.336,29.955a1.8308,1.8308,0,0,1,1.9431,1.7918,1.8855,1.8855,0,0,1-1.8882,1.9951A1.9105,1.9105,0,0,1,9.4959,31.86,1.8422,1.8422,0,0,1,11.336,29.955Z"/></svg>