<svg id="Livello_1" data-name="Livello 1" xmlns="http://www.w3.org/2000/svg" viewBox="0 0 48.0005 47.9991"><defs><style>.cls-1{fill:#fff;}</style></defs><path class="cls-1" d="M5.0923,36.5209V35.1523q0-9.7648.0005-19.53c0-1.59.0027-1.5935,1.5674-1.5936,11.5746-.0011,23.1493.0156,34.7237-.0251,1.1865-.0042,1.5812.3,1.5707,1.5269-.0554,6.5095-.0259,13.02-.0259,19.53v1.4552h2.5295V35.2467q0-9.9435,0-19.8871c-.0006-2.7417-1.1489-3.8793-3.927-3.88q-17.5409-.0031-35.0817,0c-2.7342.0007-3.9028,1.1765-3.9046,3.93q-.0063,9.9436.0009,19.8872c0,.3852.0344.77.056,1.224Zm9.5505-8.2673c.9036.1427,1.9729.0069,2.5064.4769.598.5269.7112,1.6019,1.1341,2.6933L16.52,32.752l1.7868,1.836,1.7334-1.6371c1.6312.6809,3.59,1.0232,2.6359,3.5417h2.6957c-.9069-2.6093,1.042-2.8991,2.9984-3.6314l1.4545,1.8917,1.9306-1.9741c-.3988-.274-.7826-.4963-1.1156-.7785a9.9489,9.9489,0,0,1-.802-.8311c.3816-.95.4979-2.0125,1.0885-2.4867.562-.4514,1.6193-.2885,2.4934-.4v-2.421c-2.6123.9147-2.9888-.98-3.5555-2.6974l1.5868-1.6578-1.5837-1.8629L28.0186,21.39c-.89-.3418-1.9471-.4438-2.4373-1.0233-.4664-.5515-.3409-1.6016-.4868-2.5007H22.8312L22.7223,20.3l-3.12,1.2744-1.17-1.7624-1.98,1.5715,1.7314,1.8237c-.3426.89-.4449,1.9464-1.0268,2.4368-.55.4637-1.604.3324-2.5143.4751Z"/><path d="M5.0923,36.5209H2.6013c-.0216-.4535-.0558-.8388-.056-1.224Q2.54,25.3533,2.5444,15.41c.0018-2.7531,1.17-3.9289,3.9046-3.93q17.5409-.0041,35.0817,0c2.7781.0005,3.9264,1.1381,3.927,3.88q.0021,9.9435,0,19.8871v1.2688H42.9287V35.06c0-6.51-.0295-13.02.0259-19.53C42.9651,14.304,42.57,14,41.3839,14.0038c-11.5744.0407-23.1491.024-34.7237.0251-1.5647,0-1.5672.0038-1.5674,1.5936q-.0016,9.765-.0005,19.53Z"/><path d="M14.6428,28.2536V26.1194c.91-.1427,1.9641-.0114,2.5143-.4751.5819-.49.6842-1.5473,1.0268-2.4368l-1.7314-1.8237,1.98-1.5715,1.17,1.7624,3.12-1.2744.1089-2.4348h2.2633c.1459.8991.02,1.9492.4868,2.5007.49.5795,1.5471.6815,2.4373,1.0233l1.8489-1.7462,1.5837,1.8629L29.8644,23.164c.5667,1.7176.9432,3.6121,3.5555,2.6974v2.421c-.8741.1116-1.9314-.0513-2.4934.4-.5906.4742-.7069,1.5367-1.0885,2.4867A9.9489,9.9489,0,0,0,30.64,32c.333.2822.7168.5045,1.1156.7785L29.825,34.7529l-1.4545-1.8917c-1.9564.7323-3.9053,1.0221-2.9984,3.6314H22.6764c.9537-2.5185-1.0047-2.8608-2.6359-3.5417L18.3071,34.588,16.52,32.752l1.763-1.3282c-.4229-1.0914-.5361-2.1664-1.1341-2.6933C16.6157,28.2605,15.5464,28.3963,14.6428,28.2536Zm4.9852-1.0689a4.3511,4.3511,0,0,0,4.38,4.3914,4.3921,4.3921,0,1,0-.0059-8.7824A4.3352,4.3352,0,0,0,19.628,27.1847Z"/><path class="cls-1" d="M19.628,27.1847a4.3352,4.3352,0,0,1,4.3737-4.391,4.3921,4.3921,0,1,1,.0059,8.7824A4.3511,4.3511,0,0,1,19.628,27.1847Z"/></svg>