<svg id="Livello_1" data-name="Livello 1" xmlns="http://www.w3.org/2000/svg" viewBox="0 0 48.0005 47.9991"><defs><style>.cls-1{fill:#fff;}</style></defs><path class="cls-1" d="M40.9715,19.0605H17.39v3.5423H8.2645l-.1156-2.0347a29.9855,29.9855,0,0,0-3.61.028,3.317,3.317,0,0,0-2.8577,3.189A3.2261,3.2261,0,0,0,4.17,27.2477a23.7852,23.7852,0,0,0,3.9912.0453l.1086-1.9471H17.47v3.5927H40.9686l.1529-1.5272c.6279,0,1.1786.0111,1.7287-.002a3.4432,3.4432,0,1,0,.0465-6.8862c-.5845-.0258-1.1711-.004-1.795-.004Z"/><path d="M40.9715,19.0605l.13,1.4587c.6239,0,1.21-.0218,1.795.004a3.4432,3.4432,0,1,1-.0465,6.8862c-.55.0131-1.1008.002-1.7287.002l-.1529,1.5272H17.47V25.3459H8.2693L8.1607,27.293A23.7852,23.7852,0,0,1,4.17,27.2477a3.2261,3.2261,0,0,1-2.4882-3.4626,3.317,3.317,0,0,1,2.8577-3.189,29.9855,29.9855,0,0,1,3.61-.028l.1156,2.0347H17.39V19.0605Zm-2.5223,2.4919H19.922v4.851H38.4492ZM4.802,22.6586c-.4327.6336-.9234,1.0573-.8469,1.3092.1144.3761.6284.6313.9723.9379.2757-.3256.7467-.6381.77-.98C5.718,23.6108,5.2561,23.2643,4.802,22.6586Zm39.7305,1.3985c-.5876-.4553-.9241-.92-1.2537-.9149-.3386.005-.67.4683-1.0053.7311.2963.3458.5415.8782.9053.9772C43.4591,24.9268,43.8881,24.4586,44.5325,24.0571Z"/><path class="cls-1" d="M38.4492,21.5524v4.851H19.922v-4.851Z"/><path class="cls-1" d="M4.802,22.6586c.4541.6057.916.9522.895,1.2666-.0229.3424-.4939.6549-.77.98-.3439-.3066-.8579-.5618-.9723-.9379C3.8786,23.7159,4.3693,23.2922,4.802,22.6586Z"/><path class="cls-1" d="M44.5325,24.0571c-.6444.4015-1.0734.87-1.3537.7934-.3638-.099-.609-.6314-.9053-.9773.3348-.2627.6667-.726,1.0053-.731C43.6084,23.1374,43.9449,23.6018,44.5325,24.0571Z"/></svg>