<svg id="Livello_1" data-name="Livello 1" xmlns="http://www.w3.org/2000/svg" viewBox="0 0 48.0005 47.9991"><defs><style>.cls-1{fill:#fff;}</style></defs><path class="cls-1" d="M42.2735,27.2192H18.7155v3.5862H7.0481l-.1375-2.09a29.0227,29.0227,0,0,0-3.6052.0286,3.3877,3.3877,0,0,0-2.92,3.2787,3.3539,3.3539,0,0,0,2.5858,3.422,28.7732,28.7732,0,0,0,3.9425.0368l.14-2.0117H18.7577v3.6418h23.486l.1893-1.5443c.5892,0,1.138.0143,1.6858-.0025a3.44,3.44,0,0,0,3.4967-3.3277,3.4789,3.4789,0,0,0-3.403-3.5738c-.5848-.0363-1.1739-.0056-1.8178-.0056ZM18.535,15.6921H4.4494l-.0247-.2079,6.1-3.5455L9.864,10.8876.3851,16.3654l9.5341,5.5059.5537-1.1105L4.4088,17.2379l.0869-.2654H18.535Z"/><path d="M42.2735,27.2192l.1212,1.4384c.6439,0,1.233-.0307,1.8178.0056a3.4789,3.4789,0,0,1,3.403,3.5738,3.44,3.44,0,0,1-3.4967,3.3277c-.5478.0168-1.0966.0025-1.6858.0025l-.1893,1.5443H18.7577V33.47H7.0539l-.14,2.0117a28.7732,28.7732,0,0,1-3.9425-.0368,3.3539,3.3539,0,0,1-2.5858-3.422,3.3877,3.3877,0,0,1,2.92-3.2787,29.0227,29.0227,0,0,1,3.6052-.0286l.1375,2.09H18.7155V27.2192ZM21.2863,29.6369v4.928H39.6946v-4.928ZM3.4925,30.78c-.44.6356-.9328,1.0535-.8594,1.31.1092.3811.6187.648.9578.9635.2793-.3262.7522-.6366.7808-.9834C4.3976,31.7542,3.9406,31.3993,3.4925,30.78Zm40.88,2.665c.48-.5748.9669-.9023.9711-1.2359.0041-.3286-.481-.6633-.7515-.9953-.3459.2924-.8745.5326-.9785.8943C43.5339,32.3843,43.9915,32.8146,44.3722,33.4446Z"/><path d="M18.535,15.6921v1.28H4.4957l-.0869.2654,6.0641,3.5229-.5537,1.1105L.3851,16.3654,9.864,10.8876l.6608,1.0511-6.1,3.5455.0247.2079Z"/><path class="cls-1" d="M21.2863,29.6369H39.6946v4.928H21.2863Z"/><path class="cls-1" d="M3.4925,30.78c.4481.62.9051.9746.8792,1.29-.0286.3468-.5015.6572-.7808.9834-.3391-.3155-.8486-.5824-.9578-.9635C2.56,31.8331,3.0523,31.4152,3.4925,30.78Z"/><path class="cls-1" d="M44.3722,33.4446c-.3807-.63-.8383-1.06-.7589-1.3369.104-.3617.6326-.6019.9785-.8943.27.332.7556.6667.7515.9953C45.3391,32.5423,44.852,32.87,44.3722,33.4446Z"/></svg>