<svg id="Livello_1" data-name="Livello 1" xmlns="http://www.w3.org/2000/svg" viewBox="0 0 48.0005 47.9991"><defs><style>.cls-1{fill:#fff;}</style></defs><path class="cls-1" d="M18.0552,37.09H41.61l.2347-1.52c.5878,0,1.1387.0113,1.689-.0021a3.45,3.45,0,1,0,.0017-6.899c-.5759-.02-1.1531-.003-1.7092-.003l-.2155-1.4492H18.006v3.6393H14.2l-.1122-2.1728c-1.1859,0-2.2973-.076-3.3942.0175a3.4225,3.4225,0,0,0-3.1074,3.238,3.3436,3.3436,0,0,0,2.7365,3.5382,29.499,29.499,0,0,0,3.8843.0332v-2.02h3.8479ZM9.0833,12.0042l6.0772,3.5218-.0559.2514H.9333l.1335,1.2989H15.085l.04.2246L9.035,20.8222,9.7,21.8707l9.5166-5.4749L9.6517,10.9093Z"/><path d="M18.0552,37.09V33.4905H14.2073v2.02a29.499,29.499,0,0,1-3.8843-.0332,3.3436,3.3436,0,0,1-2.7365-3.5382,3.4225,3.4225,0,0,1,3.1074-3.238c1.0969-.0935,2.2083-.0175,3.3942-.0175L14.2,30.8559H18.006V27.2166H41.6108l.2155,1.4492c.5561,0,1.1333-.0167,1.7092.003a3.45,3.45,0,1,1-.0017,6.899c-.55.0134-1.1012.0021-1.689.0021L41.61,37.09Zm21.1211-7.42H20.6491v4.9029H39.1763ZM43.9691,33.45c.4084-.652.869-1.0766.79-1.3354-.1112-.3621-.625-.6007-.9665-.8921-.2644.324-.7239.64-.7368.9742C43.0433,32.5115,43.5012,32.8445,43.9691,33.45ZM12.0285,32.1679c-.6185-.4588-.9958-.9434-1.2673-.89-.3693.0727-.6578.5563-.9809.8637.301.2945.5764.7829.91.8271C11.0041,33.01,11.38,32.5814,12.0285,32.1679Z"/><path d="M9.0833,12.0042l.5684-1.0949,9.5648,5.4865L9.7,21.8707,9.035,20.8222l6.0905-3.5213-.04-.2246H1.0668L.9333,15.7774H15.1046l.0559-.2514Z"/><path class="cls-1" d="M39.1763,29.67v4.9029H20.6491V29.67Z"/><path class="cls-1" d="M43.9691,33.45c-.4679-.6055-.9258-.9385-.9137-1.2533.0129-.3337.4724-.65.7368-.9742.3415.2914.8553.53.9665.8921C44.8381,32.3734,44.3775,32.798,43.9691,33.45Z"/><path class="cls-1" d="M12.0285,32.1679c-.6489.4135-1.0244.8422-1.3377.8008-.3341-.0442-.6095-.5326-.91-.8271.3231-.3074.6116-.791.9809-.8637C11.0327,31.2245,11.41,31.7091,12.0285,32.1679Z"/></svg>