<svg id="Livello_1" data-name="Livello 1" xmlns="http://www.w3.org/2000/svg" viewBox="0 0 48.0005 47.9991"><defs><style>.cls-1{fill:#fff;}</style></defs><path class="cls-1" d="M44.1714,11.4442c-.4632.1473-.76.2462-1.0587.336A13.1,13.1,0,0,1,32.1,10.4718a8.6658,8.6658,0,0,0-7.44-.8034,2.6329,2.6329,0,0,1-1.4533-.023,8.5728,8.5728,0,0,0-7.328.8085,12.9882,12.9882,0,0,1-9.6262,1.6848c-.7908-.1563-1.5679-.3811-2.4408-.5965,0,8.66-.0075,17.1941.0322,25.7281a1.2207,1.2207,0,0,0,.7422.8351A13.733,13.733,0,0,0,16.0746,36.849a7.6511,7.6511,0,0,1,7.2709-.6785,1.7354,1.7354,0,0,0,1.2008-.004,7.333,7.333,0,0,1,6.947.5315,14.2913,14.2913,0,0,0,11.7086,1.4811,1.1311,1.1311,0,0,0,.9869-1.3127c-.0388-3.7325-.0174-7.4656-.0174-11.1985Z"/><path d="M44.1714,11.4442V25.6679c0,3.7329-.0214,7.466.0174,11.1985a1.1311,1.1311,0,0,1-.9869,1.3127A14.2913,14.2913,0,0,1,31.4933,36.698a7.333,7.333,0,0,0-6.947-.5315,1.7354,1.7354,0,0,1-1.2008.004,7.6511,7.6511,0,0,0-7.2709.6785A13.733,13.733,0,0,1,4.5865,38.1054a1.2207,1.2207,0,0,1-.7422-.8351c-.04-8.534-.0322-17.0683-.0322-25.7281.8729.2154,1.65.44,2.4408.5965a12.9882,12.9882,0,0,0,9.6262-1.6848,8.5728,8.5728,0,0,1,7.328-.8085,2.6329,2.6329,0,0,0,1.4533.023,8.6658,8.6658,0,0,1,7.44.8034A13.1,13.1,0,0,0,43.1127,11.78C43.4118,11.69,43.7082,11.5915,44.1714,11.4442ZM23.24,34.7729a1.9824,1.9824,0,0,0,.1114-.3734c.0092-7.5449.0269-15.09-.0159-22.6346a1.4327,1.4327,0,0,0-.8469-1.0186,7.0439,7.0439,0,0,0-6.0626.7813,12.73,12.73,0,0,1-6.6321,2.0561c-1.5613.0294-3.1265-.1459-4.7594-.2332,0,7.659-.0094,15.319.036,22.9786.0018.2919.4883.7586.8248.8432a12.026,12.026,0,0,0,9.3279-1.2563A9.3194,9.3194,0,0,1,23.24,34.7729ZM42.8262,13.4016a1.7969,1.7969,0,0,0-.3229-.0829,1.6782,1.6782,0,0,0-.3542.0336A14.3058,14.3058,0,0,1,31.3,11.4467a7.0887,7.0887,0,0,0-5.5067-.8113,1.2892,1.2892,0,0,0-1.21,1.5011c.0322,7.2188-.0018,14.4378-.01,21.6568,0,.2967.054.5934.0892.9544a9.28,9.28,0,0,1,7.9316,1.1354,12.5545,12.5545,0,0,0,9.0885,1.4387c.8137-.154,1.177-.4422,1.1732-1.38-.0286-7.1393.0124-14.2789.0272-21.4184C42.8846,14.1388,42.8452,13.7544,42.8262,13.4016Z"/><path class="cls-1" d="M23.24,34.7729a9.3194,9.3194,0,0,0-8.0168,1.1431,12.026,12.026,0,0,1-9.3279,1.2563c-.3365-.0846-.823-.5513-.8248-.8432-.0454-7.66-.036-15.32-.036-22.9786,1.6329.0873,3.1981.2626,4.7594.2332a12.73,12.73,0,0,0,6.6321-2.0561,7.0439,7.0439,0,0,1,6.0626-.7813,1.4327,1.4327,0,0,1,.8469,1.0186c.0428,7.5446.0251,15.09.0159,22.6346A1.9824,1.9824,0,0,1,23.24,34.7729Z"/><path class="cls-1" d="M42.8262,13.4016c.019.3528.0584.7372.0576,1.1214-.0148,7.14-.0558,14.2791-.0272,21.4184.0038.9382-.3595,1.2264-1.1732,1.38a12.5545,12.5545,0,0,1-9.0885-1.4387,9.28,9.28,0,0,0-7.9316-1.1354c-.0352-.361-.09-.6577-.0892-.9544.0079-7.219.0419-14.438.01-21.6568a1.2892,1.2892,0,0,1,1.21-1.5011,7.0887,7.0887,0,0,1,5.5067.8113,14.3058,14.3058,0,0,0,10.849,1.9056,1.6782,1.6782,0,0,1,.3542-.0336A1.7969,1.7969,0,0,1,42.8262,13.4016Zm-9.7329,4.91L31.8413,15.76c-2.35,1.4662-2.6941,4.0936-.7714,5.7852a4.26,4.26,0,0,1,1.5362,3.5515c-.0516,2.62-.0264,5.2413-.0082,7.8619.0091,1.3036.6552,2.0521,1.67,2.02.97-.031,1.5644-.7619,1.57-1.9952.0124-2.6207.0842-5.2447-.0221-7.8612a5.2909,5.2909,0,0,1,1.9086-4.8365c1.2168-.975,1.1354-3.0129.0986-4.3377a3.2547,3.2547,0,0,0-4.1519-.8966c.1859.424.3679.8571.5642,1.2836C34.9051,17.79,34.8692,17.8621,33.0933,18.3117Z"/><path d="M33.0933,18.3117c1.7759-.45,1.8118-.5221,1.1421-1.9771-.1963-.4265-.3783-.86-.5642-1.2836a3.2547,3.2547,0,0,1,4.1519.8966c1.0368,1.3248,1.1182,3.3627-.0986,4.3377a5.2909,5.2909,0,0,0-1.9086,4.8365c.1063,2.6165.0345,5.2405.0221,7.8612-.0059,1.2333-.6007,1.9642-1.57,1.9952-1.0146.0324-1.6607-.7161-1.67-2.02-.0182-2.6206-.0434-5.2422.0082-7.8619A4.26,4.26,0,0,0,31.07,21.5451c-1.9227-1.6916-1.579-4.319.7714-5.7852Zm-1.7255-.3547a1.93,1.93,0,0,0,.1655,2.3045,1.83,1.83,0,0,0,2.17.8394,9.3592,9.3592,0,0,0,2.904-1.4718c1.3865-1.17.8253-3.0271-.9655-3.6043.44,2.047.2425,2.6533-1.23,3.2059a2.7716,2.7716,0,0,1-1.8262.2039C32.0685,19.2091,31.7712,18.4792,31.3678,17.957Zm2.4637,4.3941V33.9939c.4895-.3616.7093-.4479.71-.5352.0171-3.7245.0147-7.4491.0147-11.2213Z"/><path class="cls-1" d="M31.3678,17.957c.4034.5222.7007,1.2521,1.2185,1.4776a2.7716,2.7716,0,0,0,1.8262-.2039c1.4722-.5526,1.6693-1.1589,1.23-3.2059,1.7908.5772,2.352,2.4344.9655,3.6043a9.3592,9.3592,0,0,1-2.904,1.4718,1.83,1.83,0,0,1-2.17-.8394A1.93,1.93,0,0,1,31.3678,17.957Z"/><path class="cls-1" d="M33.8315,22.3511l.7244-.1137c0,3.7722.0024,7.4968-.0147,11.2213,0,.0873-.22.1736-.71.5352Z"/></svg>