<svg id="Livello_1" data-name="Livello 1" xmlns="http://www.w3.org/2000/svg" viewBox="0 0 48.0005 47.9991"><defs><style>.cls-1{fill:#fff;}</style></defs><path class="cls-1" d="M10.9607,23.9847c-.6664-.289-1.0881-.4986-1.5281-.658a6.8088,6.8088,0,0,0-5.3342.113c-.9814.4482-1.1879,1.0712-.613,1.9971A3.6858,3.6858,0,0,0,6.591,27.083a40.5519,40.5519,0,0,1,6.5327,1.07c1.7349.4587,1.9027,1.3957.866,2.9194-.1987.2921-.4909.5193-.7036.8036-.2154.288-.3856.61-.67,1.0693,1.4584,0,2.9394.4226,3.8259-.1208.8585-.5262,1.1055-2.0459,1.6556-3.2018a34.8641,34.8641,0,0,0,13.98-.0927l.3255.2747-1.2594,3.1936c.8966,0,1.6866.0005,2.4765,0,1.5678-.0014,1.7588-.1776,1.8521-1.74a3.3886,3.3886,0,0,0-.0091-.95c-.3156-1.3551.37-2.0863,1.5293-2.5391.7387-.2887,1.483-.5629,2.2251-.8428,1.2609-.4758,2.556-.8793,3.77-1.4543a10.7413,10.7413,0,0,0,1.8454-1.41l-.1744-.2-5.56,1.5681-.077-.27,1.015-1.3137c-2.348-1.1577-3.3032-3.3517-4.5872-5.2932a7.2814,7.2814,0,0,0-5.8576-3.4114c-2.6566-.1586-5.3217-.2541-7.9826-.2451a8.2672,8.2672,0,0,0-6.9788,3.72,11.1072,11.1072,0,0,1-4.1762,3.9686Z"/><path d="M10.9607,23.9847l-.5065-1.3988A11.1072,11.1072,0,0,0,14.63,18.6173a8.2672,8.2672,0,0,1,6.9788-3.72c2.6609-.009,5.326.0865,7.9826.2451a7.2814,7.2814,0,0,1,5.8576,3.4114c1.284,1.9415,2.2392,4.1355,4.5872,5.2932l-1.015,1.3137.077.27,5.56-1.5681.1744.2a10.7413,10.7413,0,0,1-1.8454,1.41c-1.2136.575-2.5087.9785-3.77,1.4543-.7421.28-1.4864.5541-2.2251.8428-1.1588.4528-1.8449,1.184-1.5293,2.5391a3.3886,3.3886,0,0,1,.0091.95c-.0933,1.5621-.2843,1.7383-1.8521,1.74-.79.0007-1.58,0-2.4765,0l1.2594-3.1936-.3255-.2747a34.8641,34.8641,0,0,1-13.98.0927c-.55,1.1559-.7971,2.6756-1.6556,3.2018-.8865.5434-2.3675.1208-3.8259.1208.2847-.46.4549-.7813.67-1.0693.2127-.2843.5049-.5115.7036-.8036,1.0367-1.5237.8689-2.4607-.866-2.9194a40.5519,40.5519,0,0,0-6.5327-1.07,3.6858,3.6858,0,0,1-3.1056-1.6462c-.5749-.9259-.3684-1.5489.613-1.9971a6.8088,6.8088,0,0,1,5.3342-.113C9.8726,23.4861,10.2943,23.6957,10.9607,23.9847Z"/></svg>