<svg id="Livello_1" data-name="Livello 1" xmlns="http://www.w3.org/2000/svg" viewBox="0 0 48.0005 47.9991"><defs><style>.cls-1{fill:#fff;}</style></defs><path class="cls-1" d="M30.14,44.6757a1.47,1.47,0,0,0,.14-.3916c.0142-3.4132.04-6.8268-.0042-10.2394-.0038-.2958-.4207-.7122-.7422-.8526a24.72,24.72,0,0,0-2.4119-.7936V22.0151c0-2.3939-.7952-3.1552-3.2576-3.0259a11.7836,11.7836,0,0,0-1.8615.37c-.8686.19-1.163.6948-1.15,1.613.0549,3.8066.0231,7.6145.0231,11.46-.7057.2026-1.3442.4153-1.9971.5662A1.3293,1.3293,0,0,0,17.7,34.57c.0753,2.419.0251,4.8419.0251,7.2632v2.8423ZM25.3591,9.8088l.28-.038,2.6394,4.5046,2.1575-1.259L24.0772,2.042,17.72,13.0252l2.1439,1.239,2.715-4.5574.276.08v7.8645h2.5047ZM12.3111,36.6337v9.315h4.5118v-9.315Zm18.8882-.0073V45.957h4.49V36.6264ZM15.9046,17.77V26.451h3.6V17.77Zm16.1919.0339H28.5177v8.633h3.5788Z"/><path d="M30.14,44.6757H17.7247V41.8334c0-2.4213.05-4.8442-.0251-7.2632a1.3293,1.3293,0,0,1,1.1794-1.5717c.6529-.1509,1.2914-.3636,1.9971-.5662,0-3.8457.0318-7.6536-.0231-11.46-.0132-.9182.2812-1.4228,1.15-1.613a11.7836,11.7836,0,0,1,1.8615-.37c2.4624-.1293,3.2575.632,3.2576,3.0259V32.3985a24.72,24.72,0,0,1,2.4119.7936c.3215.14.7384.5568.7422.8526.0441,3.4126.0184,6.8262.0042,10.2394A1.47,1.47,0,0,1,30.14,44.6757Zm-1.0966-1.219c0-2.9393.0266-5.75-.0382-8.5589-.0071-.3043-.4931-.7639-.8419-.8678a14.905,14.905,0,0,0-8.3434-.0309c-.6286.172-.927.4382-.8826,1.1428.0648,1.0274.0165,2.0619.0164,3.0935v5.2213ZM25.85,32.1966c.0191-.4309.05-.8156.051-1.2.004-3.0478-.06-6.0974.0334-9.1424.0362-1.1808-.44-1.559-1.478-1.5645-.3957-.0021-.7926,0-1.1872.0271-.83.0568-1.2254.3926-1.2063,1.3417.0634,3.1653.0218,6.3326.0271,9.4991.0006.342.0444.6839.0691,1.0394Z"/><path d="M25.3591,9.8088v7.8425H22.8544V9.7868l-.276-.08-2.715,4.5574L17.72,13.0252,24.0772,2.042l6.3587,10.9744-2.1575,1.259L25.639,9.7708Z"/><path d="M12.3111,36.6337h4.5118v9.315H12.3111Zm1.2336,1.2347v6.835h2.0429v-6.835Z"/><path d="M31.1993,36.6264h4.49V45.957h-4.49Zm3.2721,8.087V37.9209H32.3772v6.7925Z"/><path d="M15.9046,17.77h3.6V26.451h-3.6Zm1.1973,7.5531,1.1229-.1012V18.9287l-1.1229.0976Z"/><path d="M32.0965,17.8035v8.633H28.5177v-8.633Zm-2.3318,1.1774v6.3275l1.0894-.0794V18.9809Z"/><path class="cls-1" d="M29.0431,43.4567h-10.09V38.2354c0-1.0316.0484-2.0661-.0164-3.0935-.0444-.7046.254-.9708.8826-1.1428a14.905,14.905,0,0,1,8.3434.0309c.3488.1039.8348.5635.8419.8678C29.07,37.7066,29.0431,40.5174,29.0431,43.4567Z"/><path class="cls-1" d="M25.85,32.1966H22.1594c-.0247-.3555-.0685-.6974-.0691-1.0394-.0053-3.1665.0363-6.3338-.0271-9.4991-.0191-.9491.3766-1.2849,1.2063-1.3417.3946-.0271.7915-.0292,1.1872-.0271,1.0376.0055,1.5142.3837,1.478,1.5645-.0932,3.045-.0294,6.0946-.0334,9.1424C25.9007,31.381,25.8694,31.7657,25.85,32.1966Z"/><path class="cls-1" d="M13.5447,37.8684h2.0429v6.835H13.5447Z"/><path class="cls-1" d="M34.4714,44.7134H32.3772V37.9209h2.0942Z"/><path class="cls-1" d="M17.1019,25.3227V19.0263l1.1229-.0976v6.2928Z"/><path class="cls-1" d="M29.7647,18.9809h1.0894V25.229l-1.0894.0794Z"/></svg>