<svg id="Livello_1" data-name="Livello 1" xmlns="http://www.w3.org/2000/svg" viewBox="0 0 48.0005 47.9991"><defs><style>.cls-1{fill:#fff;}</style></defs><path class="cls-1" d="M27.149,16.6105V15.391q0-4.7049,0-9.41c0-2.0868-.4511-2.611-2.5772-2.71a10.0725,10.0725,0,0,0-2.4653.2842A1.4254,1.4254,0,0,0,20.874,5.239c.081,3.0154.0291,6.0343.0291,9.0519,0,2.2795.0109,2.3136-2.1439,2.9965a1.2514,1.2514,0,0,0-1.0353,1.4332c.0484,3.0565.0164,6.1142.0235,9.1714.0008.34.0585.68.0906,1.028H30.2722c0-2.7243.0109-5.3758-.0054-8.0271-.0066-1.0648.2861-2.3685-.2186-3.123C29.5914,17.087,28.2347,17.0037,27.149,16.6105Zm-4.38,13.6609v7.9958l-.1962.0359-2.7115-4.6068L17.74,34.9876l6.3313,10.963,6.34-10.9979L28.249,33.7066,25.5627,38.32l-.3368-.1257V30.2714Zm8.3553-.091h4.5323V20.92H31.1243Zm-18.7805-.0083h4.5069V20.9285H12.3438ZM32.1083,10.6873v-8.63H28.48v8.63ZM15.93,2.0485v8.6266h3.582V2.0485Z"/><path d="M27.149,16.6105c1.0857.3932,2.4424.4765,2.8992,1.1594.5047.7545.212,2.0582.2186,3.123.0163,2.6513.0054,5.3028.0054,8.0271H17.838c-.0321-.3481-.09-.688-.0906-1.028-.0071-3.0572.0249-6.1149-.0235-9.1714a1.2514,1.2514,0,0,1,1.0353-1.4332c2.1548-.6829,2.1439-.717,2.1439-2.9965,0-3.0176.0519-6.0365-.0291-9.0519a1.4254,1.4254,0,0,1,1.2324-1.6842,10.0725,10.0725,0,0,1,2.4653-.2842c2.1261.0995,2.5772.6237,2.5772,2.71q0,4.7049,0,9.41ZM18.9946,27.6976H29.0624c0-2.9315.0184-5.7781-.0306-8.6236a1.1059,1.1059,0,0,0-.6789-.7543,14.9345,14.9345,0,0,0-8.6711,0,1.1006,1.1006,0,0,0-.6576.7759C18.9763,21.9391,18.9946,24.7841,18.9946,27.6976Zm6.8717-11.23c.0227-.3831.0608-.7318.0613-1.08.0047-3.1356-.0406-6.2721.0283-9.4062.0216-.98-.3559-1.3937-1.2417-1.4537a11.87,11.87,0,0,0-1.5346.0341c-.8356.0519-1.0987.484-1.0794,1.3324.0588,2.5785.0213,5.1593.0212,7.7392v2.8346Z"/><path d="M22.769,30.2714h2.4569v7.9224l.3368.1257,2.6863-4.6129,2.1617,1.2461-6.34,10.9979L17.74,34.9876l2.1217-1.2913,2.7115,4.6068.1962-.0359Z"/><path d="M31.1243,30.18V20.92h4.5323V30.18Zm3.3287-1.2092V22.1493H32.4152v6.8219Z"/><path d="M12.3438,30.1721V20.9285h4.5069v9.2436ZM13.58,22.1116v6.8337h2.0577V22.1116Z"/><path d="M32.1083,10.6873H28.48v-8.63h3.6288ZM29.74,3.246V9.4817l1.1369-.0577V3.246Z"/><path d="M15.93,2.0485h3.582v8.6266H15.93ZM17.16,3.2512V9.4293h1.0981V3.2512Z"/><path class="cls-1" d="M18.9946,27.6976c0-2.9135-.0183-5.7585.03-8.6024a1.1006,1.1006,0,0,1,.6576-.7759,14.9345,14.9345,0,0,1,8.6711,0,1.1059,1.1059,0,0,1,.6789.7543c.049,2.8455.0306,5.6921.0306,8.6236Z"/><path class="cls-1" d="M25.8663,16.4677H22.1214V13.6331c0-2.58.0376-5.1607-.0212-7.7392-.0193-.8484.2438-1.28,1.0794-1.3324a11.87,11.87,0,0,1,1.5346-.0341c.8858.06,1.2633.4736,1.2417,1.4537-.0689,3.1341-.0236,6.2706-.0283,9.4062C25.9271,15.7359,25.889,16.0846,25.8663,16.4677Z"/><path class="cls-1" d="M34.453,28.9712H32.4152V22.1493H34.453Z"/><path class="cls-1" d="M13.58,22.1116h2.0577v6.8337H13.58Z"/><path class="cls-1" d="M29.74,3.246h1.1369V9.424L29.74,9.4817Z"/><path class="cls-1" d="M17.16,3.2512h1.0981V9.4293H17.16Z"/></svg>