<svg id="Livello_1" data-name="Livello 1" xmlns="http://www.w3.org/2000/svg" viewBox="0 0 48.0005 47.9991"><defs><style>.cls-1{fill:#fff;}</style></defs><path class="cls-1" d="M33.6878,27.1509c.1453-.8536.25-1.3861.3246-1.9229A4.3726,4.3726,0,0,0,31.18,20.1846a4.5945,4.5945,0,0,0-5.3223,1.8423,4.6639,4.6639,0,0,0,1.1973,5.5505,8.6741,8.6741,0,0,1,.9036.7749,1.8651,1.8651,0,0,1-.5118,3.2241,11.213,11.213,0,0,1-9.8982.3065,3.5308,3.5308,0,0,1-2.05-2.6224c-.321-1.3876-.5616-2.7941-.8993-4.1772a7.5894,7.5894,0,0,1,.3365-5.5628,2.4657,2.4657,0,0,0,.35-1.4784c-.1418-.6775-.4073-1.6178-.9059-1.86a2.7867,2.7867,0,0,0-2.2957.0843,2.592,2.592,0,0,0-.7425,1.9337c-.0156.6231.4541,1.2461.6257,1.8914.0782.2942.0682.7791-.1106.9286a.947.947,0,0,1-.9328.006,5.0161,5.0161,0,0,1-.9131-1.4962c-.1237-.3044.0194-.707-.01-1.0611A1.8486,1.8486,0,0,0,8.2918,16.637a1.9067,1.9067,0,0,0-2.2359,1.36,1.9642,1.9642,0,0,0,.8558,2.3784c.6006.4516,1.1657.95,1.8936,1.5489-.7894.7478-1.3585,1.347-1.9887,1.8736-2.7525,2.3-2.6823,3.577.6589,4.9587A8.6525,8.6525,0,0,1,12.5232,33.78a3.9388,3.9388,0,0,0,4.0838,2.6332c5.9648-.0426,11.934-.0864,17.8942.1019,2.9285.0925,5.1422-1.3518,7.4629-2.657a2.1824,2.1824,0,0,0,1.0717-2.7014c-.5248.2481-.9508.4924-1.406.6551a9.0621,9.0621,0,0,1-2.4428.723A1.8482,1.8482,0,0,1,37.8,31.6351c-.1682-.3231.1187-1.0616.4277-1.424a10.897,10.897,0,0,0,2.4856-9.6719c-.7428-3.66-2.4488-6.7141-6.1072-8.2556a13.6389,13.6389,0,0,0-6.8035-.6686,13.0871,13.0871,0,0,0-10.72,17.3793,3.6062,3.6062,0,0,0,3.5941,2.6007,23.14,23.14,0,0,0,4.4505-.6248,10.1581,10.1581,0,0,0,2.0508-.9243,12.4975,12.4975,0,0,0-1.3846-1.8195,5.0994,5.0994,0,0,1-1.0921-6.5747,5.6545,5.6545,0,0,1,6.4572-2.8591c2.4634.6747,4.5283,3.3008,4.3557,5.62A2.98,2.98,0,0,1,33.6878,27.1509Z"/><path d="M33.6878,27.1509a2.98,2.98,0,0,0,1.8265-2.7386c.1726-2.3189-1.8923-4.945-4.3557-5.62a5.6545,5.6545,0,0,0-6.4572,2.8591,5.0994,5.0994,0,0,0,1.0921,6.5747,12.4975,12.4975,0,0,1,1.3846,1.8195,10.1581,10.1581,0,0,1-2.0508.9243,23.14,23.14,0,0,1-4.4505.6248,3.6062,3.6062,0,0,1-3.5941-2.6007,13.0871,13.0871,0,0,1,10.72-17.3793,13.6389,13.6389,0,0,1,6.8035.6686c3.6584,1.5415,5.3644,4.5959,6.1072,8.2556a10.897,10.897,0,0,1-2.4856,9.6719c-.309.3624-.5959,1.1009-.4277,1.424a1.8482,1.8482,0,0,0,1.3869.8992,9.0621,9.0621,0,0,0,2.4428-.723c.4552-.1627.8812-.407,1.406-.6551a2.1824,2.1824,0,0,1-1.0717,2.7014c-2.3207,1.3052-4.5344,2.75-7.4629,2.657-5.96-.1883-11.9294-.1445-17.8942-.1019A3.9388,3.9388,0,0,1,12.5232,33.78a8.6525,8.6525,0,0,0-5.0477-5.0227c-3.3412-1.3817-3.4114-2.6591-.6589-4.9587.63-.5266,1.1993-1.1258,1.9887-1.8736-.7279-.5986-1.293-1.0973-1.8936-1.5489a1.9642,1.9642,0,0,1-.8558-2.3784,1.9067,1.9067,0,0,1,2.2359-1.36,1.8486,1.8486,0,0,1,1.7089,1.8323c.0294.3541-.1137.7567.01,1.0611a5.0161,5.0161,0,0,0,.9131,1.4962.947.947,0,0,0,.9328-.006c.1788-.15.1888-.6344.1106-.9286-.1716-.6453-.6413-1.2683-.6257-1.8914a2.592,2.592,0,0,1,.7425-1.9337,2.7867,2.7867,0,0,1,2.2957-.0843c.4986.2417.7641,1.182.9059,1.86a2.4657,2.4657,0,0,1-.35,1.4784,7.5894,7.5894,0,0,0-.3365,5.5628c.3377,1.3831.5783,2.79.8993,4.1772a3.5308,3.5308,0,0,0,2.05,2.6224,11.213,11.213,0,0,0,9.8982-.3065,1.8651,1.8651,0,0,0,.5118-3.2241,8.6741,8.6741,0,0,0-.9036-.7749,4.6639,4.6639,0,0,1-1.1973-5.55A4.5945,4.5945,0,0,1,31.18,20.1846a4.3726,4.3726,0,0,1,2.8326,5.0434C33.9382,25.7648,33.8331,26.2973,33.6878,27.1509Z"/></svg>