<svg id="Livello_1" data-name="Livello 1" xmlns="http://www.w3.org/2000/svg" viewBox="0 0 48.0005 47.9991"><defs><style>.cls-1{fill:#fff;}</style></defs><path class="cls-1" d="M8.3389,39.7466a16.415,16.415,0,0,0,2.4272-.0286,3.2909,3.2909,0,0,0,1.75-.7029q13.34-13.2421,26.6053-26.56a2.0028,2.0028,0,0,0,.6383-1.0661c.0882-1.0135.03-2.04.03-3.0327a5.4423,5.4423,0,0,0-5.4085,1.6389Q22.4674,22.2124,10.2478,34.13c-1.5386,1.5058-2.3239,2.9963-1.9741,5.0858C8.2932,39.3316,8.3028,39.4492,8.3389,39.7466ZM29.113,8.2329c-2.0223,0-4.1544-.0244-6.2847.0254a1.7005,1.7005,0,0,0-.98.5513q-6.5188,6.4743-13,12.9867a1.6981,1.6981,0,0,0-.55.9812c-.05,2.1317-.0253,4.2651-.0253,6.3908ZM18.8175,39.7459c2.1128,0,4.1782.0324,6.2409-.0275a2.0023,2.0023,0,0,0,1.1977-.5941q6.4754-6.4185,12.9021-12.8861c.2433-.2441.5889-.554.5954-.84.05-2.193.0273-4.3877.0273-6.72ZM8.3763,8.261v6.6764L15.0589,8.261ZM39.7316,32.8425l-6.9055,6.8448h6.9055Z"/><path d="M8.3389,39.7466c-.0361-.2974-.0457-.415-.0652-.5309-.35-2.09.4355-3.58,1.9741-5.0858Q22.4442,22.1936,34.3819,9.9955A5.4423,5.4423,0,0,1,39.79,8.3566c0,.9929.0579,2.0192-.03,3.0327a2.0028,2.0028,0,0,1-.6383,1.0661q-13.28,13.3028-26.6053,26.56a3.2909,3.2909,0,0,1-1.75.7029A16.415,16.415,0,0,1,8.3389,39.7466Z"/><path d="M29.113,8.2329,8.2727,29.1683c0-2.1257-.0245-4.2591.0253-6.3908a1.6981,1.6981,0,0,1,.55-.9812q6.4809-6.5124,13-12.9867a1.7005,1.7005,0,0,1,.98-.5513C24.9586,8.2085,27.0907,8.2329,29.113,8.2329Z"/><path d="M18.8175,39.7459,39.7809,18.6785c0,2.332.0225,4.5267-.0273,6.72-.0065.286-.3521.5959-.5954.84q-6.4371,6.4572-12.9021,12.8861a2.0023,2.0023,0,0,1-1.1977.5941C22.9957,39.7783,20.93,39.7459,18.8175,39.7459Z"/><path d="M8.3763,8.261h6.6826L8.3763,14.9374Z"/><path d="M39.7316,32.8425v6.8448H32.8261Z"/></svg>