<svg id="Livello_1" data-name="Livello 1" xmlns="http://www.w3.org/2000/svg" viewBox="0 0 48.0005 47.9991"><defs><style>.cls-1{fill:#fff;}</style></defs><path class="cls-1" d="M12.5748,35.9127V34.5472q0-10.6828.0016-21.3656c.001-1.8592.6346-2.4815,2.5266-2.4915,1.5986-.0085,3.1974-.0038,4.796-.0014,2.2046.0033,2.7951.5789,2.7955,2.73q.0019,10.8021.0038,21.6043a4.4408,4.4408,0,0,0,4.8036,4.7522c1.7985.0089,3.5971.0047,5.3956.001,3.2219-.0066,4.9446-1.7189,4.95-4.9417q.0123-6.9825.0022-13.9652V19.7425l.2735-.0746,1.7057,2.8669L41.99,21.2674l-5.3779-9.2658-5.3648,9.2841,2.17,1.2362,1.7341-2.9233c.1362.2036.21.2619.21.32.0089,5.0925.0292,10.1851.0042,15.2775-.0066,1.3353-.7514,2.0067-2.1359,2.0278-1.8381.028-3.6769.0151-5.5154.0066-1.9039-.0088-2.48-.5858-2.4825-2.5091q-.01-7.1616-.0025-14.3233c0-2.5066.0361-5.0138-.0119-7.5195A4.3578,4.3578,0,0,0,20.57,8.2321c-1.8382-.023-3.6769-.01-5.5154-.0044-3.3564.01-5.0442,1.7151-5.0456,5.1q-.0042,10.6231-.0009,21.2462v1.3389Zm18.4233-27.05c-.1567.73-.232,1.25.6672,1.2441,3.4327-.0232,6.8656-.0221,10.2984-.0382.1017-.0005.2031-.0916.3664-.17l-.0823-1.0357ZM5.67,39.031H16.9639l-.0878-1.0691H5.67Z"/><path d="M12.5748,35.9127H10.0081V34.5738q0-10.623.0009-21.2462c.0014-3.3848,1.6892-5.09,5.0456-5.1,1.8385-.0057,3.6772-.0186,5.5154.0044a4.3578,4.3578,0,0,1,4.6475,4.6469c.048,2.5057.0117,5.0129.0119,7.5195q0,7.1617.0025,14.3233c.0028,1.9233.5786,2.5,2.4825,2.5091,1.8385.0085,3.6773.0214,5.5154-.0066,1.3845-.0211,2.1293-.6925,2.1359-2.0278.025-5.0924.0047-10.185-.0042-15.2775,0-.0585-.0734-.1168-.21-.32l-1.7341,2.9233-2.17-1.2362,5.3648-9.2841L41.99,21.2674l-2.1612,1.2674-1.7057-2.8669-.2735.0746v1.1264q0,6.9827-.0022,13.9652c-.0056,3.2228-1.7283,4.9351-4.95,4.9417-1.7985.0037-3.5971.0079-5.3956-.001a4.4408,4.4408,0,0,1-4.8036-4.7522q-.0143-10.8022-.0038-21.6043c0-2.1507-.5909-2.7263-2.7955-2.73-1.5986-.0024-3.1974-.0071-4.796.0014-1.892.01-2.5256.6323-2.5266,2.4915q-.0055,10.6828-.0016,21.3656Z"/><path d="M30.9981,8.8631h11.25L42.33,9.8988c-.1633.0786-.2647.17-.3664.17-3.4328.0161-6.8657.015-10.2984.0382C30.7661,10.1132,30.8414,9.5929,30.9981,8.8631Z"/><path d="M5.67,39.031V37.9619H16.8761l.0878,1.0691Z"/></svg>