<svg id="Livello_1" data-name="Livello 1" xmlns="http://www.w3.org/2000/svg" viewBox="0 0 48.0005 47.9991"><defs><style>.cls-1{fill:#fff;}</style></defs><path class="cls-1" d="M11.47,5.22V42.7791H36.53V5.22Z"/><path d="M11.47,5.22H36.53V42.7791H11.47Zm3.7459,2.4605a4.5562,4.5562,0,0,0-.0715.6265c.0172.5551.0327,1.1118.089,1.6638a19.4421,19.4421,0,0,0,5.9452,12.1443c1.6742,1.6573,1.6711,2.1227-.0106,3.809a19.9339,19.9339,0,0,0-4.9806,7.741,17.5664,17.5664,0,0,0-1.0084,6.6636h17.94c-.4105-2.1989-.66-4.2809-1.2041-6.2834a19.4607,19.4607,0,0,0-5.4511-8.5347c-1.1976-1.2013-1.1633-1.7689.0037-3.0244.46-.4949.9313-.98,1.39-1.4752a17.8185,17.8185,0,0,0,4.3784-8.0748c.4015-1.6968.5052-3.4637.7509-5.2557Zm20.1811-.0829L34.061,7.707c.085,6.6165-2.599,11.9061-7.3665,16.2768.4648.4948.8042.8755,1.164,1.2358a19.7867,19.7867,0,0,1,5.51,9.4262c.3925,1.6428.4439,3.3648.7155,5.04.0439.2707.43.4861.6582.7271a5.4134,5.4134,0,0,0,.6385-.7551c.087-.1475.0169-.3876.0169-.5859q0-15.0492,0-30.0985Zm-22.6352.1V40.3846l1.1531-.07c-.0744-6.5864,2.62-11.8758,7.4242-16.3076A21.0388,21.0388,0,0,1,13.9021,7.6975Z"/><path class="cls-1" d="M15.2161,7.6805H32.9873c-.2457,1.792-.3494,3.5589-.7509,5.2557A17.8185,17.8185,0,0,1,27.858,21.011c-.4591.4957-.93.98-1.39,1.4752-1.167,1.2555-1.2013,1.8231-.0037,3.0244a19.4607,19.4607,0,0,1,5.4511,8.5347c.5438,2.0025.7936,4.0845,1.2041,6.2834h-17.94a17.5664,17.5664,0,0,1,1.0084-6.6636,19.9339,19.9339,0,0,1,4.9806-7.741c1.6817-1.6863,1.6848-2.1517.0106-3.809A19.4421,19.4421,0,0,1,15.2336,9.9708c-.0563-.552-.0718-1.1087-.089-1.6638A4.5562,4.5562,0,0,1,15.2161,7.6805Z"/><path class="cls-1" d="M35.3972,7.5976V8.9737q0,15.0492,0,30.0985c0,.1983.07.4384-.0169.5859a5.4134,5.4134,0,0,1-.6385.7551c-.228-.241-.6143-.4564-.6582-.7271-.2716-1.6755-.323-3.3975-.7155-5.04a19.7867,19.7867,0,0,0-5.51-9.4262c-.36-.36-.6992-.741-1.164-1.2358,4.7675-4.3707,7.4515-9.66,7.3665-16.2768Z"/><path class="cls-1" d="M12.762,7.6975h1.14a21.0388,21.0388,0,0,0,7.4372,16.3092c-4.8046,4.4318-7.4986,9.7212-7.4242,16.3076l-1.1531.07Z"/></svg>